<?xml version="1.0" encoding="iso-8859-1"?>
<!-- Uploaded to: SVG Repo, www.svgrepo.com, Generator: SVG Repo Mixer Tools -->
<!DOCTYPE svg PUBLIC "-//W3C//DTD SVG 1.1//EN" "http://www.w3.org/Graphics/SVG/1.1/DTD/svg11.dtd">
<svg fill="#000000" version="1.1" id="Capa_1" xmlns="http://www.w3.org/2000/svg" xmlns:xlink="http://www.w3.org/1999/xlink" 
	 width="800px" height="800px" viewBox="0 0 444.427 444.427"
	 xml:space="preserve">
<g>
	<path d="M224.87,0C73.844,0,27.906,62,27.906,179.611c0,117.618,171.612,266.78,196.963,264.796
		c25.345-1.985,191.651-147.178,191.651-264.796C416.521,62,375.884,0,224.87,0z M196.769,212.196
		c-2.225,3.667-34.477,13.283-58.625,11.297c-0.829-0.058-1.641-0.157-2.452-0.239c-5.12-0.607-9.832-1.757-13.656-3.719
		c-0.374-0.181-0.671-0.449-1.039-0.63c-0.374-0.205-0.753-0.263-1.127-0.456c-3.526-1.781-6.948-4.653-10.212-8.063
		c-1.278-1.302-2.44-2.639-3.538-4.028c-15.355-18.806-26.139-50.001-23.961-53.557c2.236-3.655,34.482-13.271,58.625-11.286
		c0.812,0.059,1.641,0.134,2.464,0.239c5.121,0.613,9.803,1.77,13.657,3.719c0.367,0.181,0.653,0.444,1.027,0.643
		c0.368,0.181,0.753,0.257,1.121,0.455c3.532,1.775,6.948,4.63,10.241,8.052c1.255,1.29,2.423,2.627,3.526,4.04
		C188.157,177.457,198.946,208.623,196.769,212.196z M342.195,206.381c-1.109,1.39-2.254,2.727-3.538,4.035
		c-3.281,3.404-6.703,6.265-10.218,8.057c-0.362,0.193-0.759,0.251-1.121,0.456c-0.373,0.181-0.665,0.455-1.039,0.63
		c-3.83,1.95-8.548,3.112-13.662,3.719c-0.806,0.087-1.623,0.181-2.452,0.239c-24.148,1.985-56.4-7.637-58.619-11.297
		c-2.172-3.573,8.605-34.739,23.949-53.545c1.109-1.413,2.277-2.738,3.527-4.041c3.281-3.421,6.714-6.265,10.24-8.051
		c0.374-0.198,0.748-0.274,1.121-0.449c0.374-0.205,0.654-0.467,1.027-0.648c3.83-1.938,8.524-3.106,13.662-3.719
		c0.818-0.105,1.635-0.181,2.453-0.239c24.148-1.985,56.4,7.643,58.631,11.292C368.341,156.38,357.551,187.575,342.195,206.381z"/>
</g>
</svg>