<?xml version="1.0" encoding="iso-8859-1"?>
<!-- Uploaded to: SVG Repo, www.svgrepo.com, Generator: SVG Repo Mixer Tools -->
<!DOCTYPE svg PUBLIC "-//W3C//DTD SVG 1.1//EN" "http://www.w3.org/Graphics/SVG/1.1/DTD/svg11.dtd">
<svg fill="#000000" version="1.1" id="Capa_1" xmlns="http://www.w3.org/2000/svg" xmlns:xlink="http://www.w3.org/1999/xlink" 
	 width="800px" height="800px" viewBox="0 0 576.043 576.043"
	 xml:space="preserve">
<g>
	<path d="M576.043,286.644c0-44.589-54.053-68.778-116.771-81.897c-32.871-53.008-96.056-89.008-168.507-89.008
		c-71.837,0-134.508,35.428-167.619,87.707C57.731,216.242,0,240.548,0,286.644c0,45.635,56.546,69.945,121.115,82.826
		c32.55,54.029,96.377,90.836,169.65,90.836c73.852,0,138.041-37.414,170.363-92.133
		C523.076,354.989,576.043,330.807,576.043,286.644z M290.766,139.652c93.014,0,168.693,66.554,168.693,148.369
		c0,2.721-0.292,5.377-0.455,8.057c-37.916,9.249-95.916,17.364-170.988,17.364c-71.551,0-127.514-7.368-165.418-16.079
		c-0.228-3.1-0.537-6.189-0.537-9.342C122.072,206.206,197.752,139.652,290.766,139.652z M85.833,286.644
		c3.689-1.424,7.946-2.855,12.646-4.303c-0.07,1.897-0.321,3.766-0.321,5.681c0,0.981,0.146,1.921,0.169,2.902
		C93.697,289.493,89.487,288.057,85.833,286.644z M290.766,436.391c-55.997,0-105.572-24.218-136.266-61.281
		c53.055,7.474,105.993,8.653,133.527,8.653c28.633,0,84.694-1.273,139.799-9.588C397.197,411.764,347.242,436.391,290.766,436.391z
		 M483.315,289.119c0-0.374,0.059-0.73,0.059-1.098c0-1.319-0.187-2.586-0.222-3.888c2.521,0.846,4.904,1.687,7.064,2.51
		C488.08,287.467,485.768,288.296,483.315,289.119z"/>
</g>
</svg>