<?xml version="1.0" encoding="iso-8859-1"?>
<!-- Uploaded to: SVG Repo, www.svgrepo.com, Generator: SVG Repo Mixer Tools -->
<!DOCTYPE svg PUBLIC "-//W3C//DTD SVG 1.1//EN" "http://www.w3.org/Graphics/SVG/1.1/DTD/svg11.dtd">
<svg fill="#000000" version="1.1" id="Capa_1" xmlns="http://www.w3.org/2000/svg" xmlns:xlink="http://www.w3.org/1999/xlink" 
	 width="800px" height="800px" viewBox="0 0 369.964 369.964"
	 xml:space="preserve">
<g>
	<path d="M40.532,369.964h288.9c22.348,0,40.529-18.182,40.529-40.529V40.53C369.961,18.182,351.78,0,329.432,0h-288.9
		C18.185,0,0.003,18.182,0.003,40.53v288.899C0.003,351.777,18.185,369.964,40.532,369.964z M18.708,40.53
		c0-12.035,9.789-21.824,21.824-21.824h288.9c12.038,0,21.823,9.789,21.823,21.824v288.899c0,12.039-9.785,21.824-21.823,21.824
		h-288.9c-12.035,0-21.824-9.785-21.824-21.824V40.53z"/>
	<path d="M47.422,174.494h117.911c5.169,0,9.353-4.183,9.353-9.353V47.234c0-5.17-4.184-9.354-9.353-9.354H47.422
		c-5.169,0-9.353,4.184-9.353,9.354v117.907C38.069,170.305,42.252,174.494,47.422,174.494z M56.775,56.586h99.205v99.202H56.775
		V56.586z"/>
	<path d="M266.745,174.494c37.667,0,68.308-30.646,68.308-68.308c0-37.659-30.641-68.306-68.308-68.306
		c-37.655,0-68.303,30.647-68.303,68.306C198.442,143.847,229.077,174.494,266.745,174.494z M316.346,106.186
		c0,27.349-22.249,49.602-49.602,49.602c-27.341,0-49.597-22.253-49.597-49.602c0-27.347,22.256-49.6,49.597-49.6
		C294.097,56.586,316.346,78.839,316.346,106.186z"/>
	<path d="M38.063,303.849l57.253,33.21c1.446,0.841,3.072,1.267,4.688,1.267c1.607,0,3.218-0.414,4.665-1.242l57.39-32.979
		c2.892-1.669,4.683-4.75,4.688-8.087l0.131-66.188c0.006-3.344-1.772-6.437-4.664-8.111l-57.259-33.21
		c-2.886-1.681-6.455-1.687-9.353-0.013l-57.384,32.979c-2.893,1.662-4.683,4.737-4.688,8.086l-0.131,66.189
		C33.393,299.082,35.17,302.174,38.063,303.849z M52.229,234.993l48.025-27.596l47.913,27.79l-0.113,55.388l-48.025,27.596
		l-47.913-27.791L52.229,234.993z"/>
	<path d="M223.438,281.678l-14.023,43.142c-1.254,3.854,0.128,8.074,3.398,10.461c1.638,1.188,3.568,1.791,5.498,1.791
		c1.937,0,3.86-0.604,5.505-1.791l36.693-26.664l36.693,26.664c3.275,2.375,7.708,2.375,10.997,0
		c3.275-2.387,4.651-6.606,3.397-10.461l-14.018-43.142l36.706-26.664c3.275-2.375,4.651-6.601,3.397-10.449
		c-1.255-3.86-4.847-6.467-8.902-6.467h-45.358l-14.018-43.136c-1.254-3.86-4.841-6.467-8.896-6.467
		c-4.056,0-7.648,2.606-8.902,6.467l-14.018,43.136h-45.352c-4.053,0-7.646,2.606-8.899,6.467
		c-1.251,3.849,0.125,8.074,3.397,10.449L223.438,281.678z M244.397,256.804c4.056,0,7.642-2.606,8.896-6.467l7.216-22.219
		l7.222,22.219c1.254,3.86,4.847,6.467,8.902,6.467h23.37l-18.907,13.737c-3.27,2.387-4.652,6.606-3.397,10.461l7.216,22.22
		l-18.901-13.737c-3.275-2.381-7.715-2.381-10.997,0l-18.906,13.737l7.216-22.22c1.254-3.854-0.122-8.074-3.398-10.461l-18.9-13.737
		H244.397z"/>
</g>
</svg>