<?xml version="1.0" encoding="iso-8859-1"?>
<!-- Uploaded to: SVG Repo, www.svgrepo.com, Generator: SVG Repo Mixer Tools -->
<!DOCTYPE svg PUBLIC "-//W3C//DTD SVG 1.1//EN" "http://www.w3.org/Graphics/SVG/1.1/DTD/svg11.dtd">
<svg fill="#000000" version="1.1" id="Capa_1" xmlns="http://www.w3.org/2000/svg" xmlns:xlink="http://www.w3.org/1999/xlink" 
	 width="800px" height="800px" viewBox="0 0 33.75 33.75" xml:space="preserve"
	>
<g>
	<g>
		<path d="M29.861,15.072c-0.053-0.373-0.287-0.695-0.625-0.86c-0.34-0.165-0.734-0.15-1.062,0.039l-7.326,4.254
			c-0.045,0.024-0.086,0.054-0.125,0.085l-1.133,0.652c-0.351,0.201-0.563,0.574-0.563,0.979c-0.002,0.403,0.215,0.777,0.562,0.979
			l6.383,3.707c0.18,0.104,0.375,0.152,0.567,0.152c0.351,0,0.692-0.162,0.911-0.463c1.637-2.23,2.535-4.974,2.535-7.725
			C29.986,16.278,29.945,15.673,29.861,15.072z"/>
		<path d="M8.975,8.405l7.271,4.181c0.038,0.021,0.075,0.041,0.114,0.058l1.189,0.688c0.176,0.102,0.369,0.15,0.562,0.15
			c0.195,0,0.393-0.05,0.566-0.15c0.35-0.202,0.562-0.575,0.562-0.979V4.964c0-0.578-0.436-1.063-1.01-1.125
			c-3.338-0.357-6.729,0.629-9.393,2.693C8.536,6.763,8.375,7.129,8.4,7.505C8.436,7.879,8.649,8.218,8.975,8.405z"/>
		<path d="M20.85,16.65c0.176,0.102,0.369,0.151,0.564,0.151c0.193,0,0.393-0.051,0.564-0.153l6.385-3.708
			c0.502-0.291,0.701-0.914,0.467-1.441c-1.385-3.077-3.865-5.477-6.988-6.755c-0.35-0.143-0.744-0.104-1.061,0.107
			c-0.312,0.21-0.502,0.562-0.502,0.939v9.879C20.283,16.076,20.498,16.449,20.85,16.65z"/>
		<path d="M24.73,25.384l-8.529-4.955c-0.35-0.203-0.778-0.205-1.133-0.002c-0.35,0.202-0.566,0.575-0.566,0.979v7.381
			c0,0.578,0.438,1.062,1.015,1.125c0.455,0.048,0.914,0.072,1.358,0.072c2.851,0,5.685-0.968,7.978-2.726
			c0.301-0.229,0.467-0.594,0.438-0.972C25.268,25.914,25.059,25.574,24.73,25.384z"/>
		<path d="M14.114,12.553L7.739,8.888C7.237,8.6,6.6,8.736,6.26,9.205c-1.607,2.221-2.494,4.944-2.494,7.67
			c0,0.56,0.035,1.123,0.105,1.674c0.049,0.375,0.278,0.7,0.614,0.869c0.16,0.08,0.334,0.119,0.506,0.119
			c0.193,0,0.388-0.051,0.562-0.148l8.559-4.871c0.353-0.201,0.57-0.575,0.57-0.979C14.682,13.13,14.465,12.755,14.114,12.553z"/>
		<path d="M12.905,17.04c-0.348-0.202-0.776-0.205-1.127-0.005L5.34,20.699c-0.504,0.285-0.709,0.906-0.479,1.438
			c1.375,3.135,3.877,5.575,7.048,6.87c0.139,0.056,0.282,0.084,0.428,0.084c0.223,0,0.44-0.065,0.633-0.192
			c0.311-0.209,0.5-0.562,0.5-0.938V18.02C13.467,17.615,13.254,17.242,12.905,17.04z"/>
		<path d="M16.875,0C7.569,0,0,7.569,0,16.875C0,26.18,7.569,33.75,16.875,33.75c9.307,0,16.875-7.57,16.875-16.875
			C33.75,7.569,26.18,0,16.875,0z M16.875,31.486c-8.058,0-14.611-6.556-14.611-14.611c0-8.058,6.555-14.612,14.611-14.612
			c8.059,0,14.611,6.555,14.611,14.612C31.488,24.932,24.934,31.486,16.875,31.486z"/>
	</g>
</g>
</svg>