<?xml version="1.0" encoding="iso-8859-1"?>
<!-- Uploaded to: SVG Repo, www.svgrepo.com, Generator: SVG Repo Mixer Tools -->
<!DOCTYPE svg PUBLIC "-//W3C//DTD SVG 1.1//EN" "http://www.w3.org/Graphics/SVG/1.1/DTD/svg11.dtd">
<svg fill="#000000" version="1.1" id="Capa_1" xmlns="http://www.w3.org/2000/svg" xmlns:xlink="http://www.w3.org/1999/xlink" 
	 width="800px" height="800px" viewBox="0 0 187.059 187.06"
	 xml:space="preserve">
<g>
	<path d="M159.84,26.951c1.619-3.117,0.408-6.941-2.71-8.601c-21.294-11.043-46.983-7.052-63.601,8.513
		C76.538,10.988,49.602,7.438,28.777,18.85C11.037,28.632,0,47.308,0,67.548c0,5.8,0.935,11.591,2.588,16.587
		c1.839,8.104,6.33,16.797,13.749,26.563c1.215,1.59,3.087,2.527,5.082,2.527c0.094,0,0.186,0,0.28,0
		c22.572-0.969,44.771-6.783,66.031-17.221C119.153,80.643,144.751,56.112,159.84,26.951z M24.536,100.292
		c-5.051-7.118-8.263-13.509-9.633-19.562c-1.403-4.271-2.122-8.72-2.122-13.177c0-15.588,8.482-29.974,22.137-37.512
		c6.36-3.499,13.53-5.325,20.7-5.325c12.784,0,24.816,5.645,33.015,15.527c2.433,2.929,7.417,2.929,9.822,0
		c11.161-13.5,30.025-19.093,46.765-13.159c-14.157,24.101-36.322,44.366-63.132,57.461C63.507,93.697,44.146,98.983,24.536,100.292
		z M60.825,37.836c0,1.778-1.434,3.188-3.209,3.188c-4.771,0-9.542,1.208-13.844,3.51c-9.104,5.021-14.778,14.565-14.778,24.941
		c0,1.775-1.434,3.179-3.179,3.179c-1.778,0-3.212-1.403-3.212-3.179c0-12.689,6.954-24.405,18.112-30.54
		c5.271-2.807,11.101-4.277,16.901-4.277C59.391,34.657,60.825,36.066,60.825,37.836z M178.046,37.556
		c-1.218-1.909-3.641-2.518-5.517-2.938c-2.24,0.064-4.274,1.279-5.395,3.246c-16.679,29.222-42.368,52.973-74.261,68.664
		c-16.087,7.916-33.515,13.372-51.815,16.265c-2.399,0.383-4.396,2.082-5.112,4.42c-0.719,2.339-0.034,4.896,1.775,6.564
		c24.006,22.25,51.256,39.5,52.409,40.201c1.029,0.657,2.214,0.998,3.398,0.998c1.181,0,2.368-0.341,3.397-0.998
		c3.215-1.979,78.599-49.749,87.354-89.252c1.839-5.581,2.777-11.377,2.777-17.177C187.059,57.017,183.941,46.653,178.046,37.556z
		 M172,81.327c-6.145,27.539-55.808,64.847-78.44,79.655c-6.641-4.396-22.04-14.937-37.537-28.059
		c14.873-3.373,29.088-8.354,42.493-14.937c30.488-14.998,55.71-36.916,73.551-63.79c1.462,4.335,2.211,8.817,2.211,13.351
		C174.278,72.005,173.559,76.465,172,81.327z"/>
</g>
</svg>