<?xml version="1.0" encoding="iso-8859-1"?>
<!-- Uploaded to: SVG Repo, www.svgrepo.com, Generator: SVG Repo Mixer Tools -->
<svg height="800px" width="800px" version="1.1" id="Layer_1" xmlns="http://www.w3.org/2000/svg" xmlns:xlink="http://www.w3.org/1999/xlink" 
	 viewBox="0 0 511.982 511.982" xml:space="preserve">
<path style="fill:#3BAFDA;" d="M436.547,184.18c2.953-5.093,1.203-11.624-3.906-14.562c-3.609-2.094-7.937-1.812-11.202,0.344
	v-0.016l-14.406,9.516l-33.718-19.469l33.718-19.468l14.406,9.516v-0.016c3.266,2.156,7.593,2.437,11.202,0.344
	c5.109-2.938,6.859-9.469,3.906-14.562c-0.859-1.5-2.016-2.688-3.359-3.562v-0.016l-5.499-3.625l3.53-2.047l0,0l0,0
	c5.094-2.938,6.844-9.468,3.906-14.562c-2.953-5.109-9.468-6.859-14.577-3.906l-3.531,2.031l-0.391-6.578l0,0
	c-0.109-1.594-0.547-3.203-1.406-4.688c-2.953-5.108-9.469-6.858-14.578-3.906c-3.609,2.078-5.531,5.969-5.297,9.875h-0.016
	l1.031,17.234l-44.373,25.624l-44.389-25.624l1.047-17.234h-0.016c0.234-3.906-1.688-7.797-5.312-9.875
	c-5.094-2.952-11.625-1.202-14.562,3.906c-0.859,1.484-1.312,3.094-1.406,4.688l0,0l-0.406,6.578l-3.516-2.031
	c-5.109-2.953-11.625-1.203-14.57,3.906c-2.952,5.094-1.202,11.624,3.898,14.562l3.531,2.047l-5.5,3.625v0.016
	c-1.336,0.875-2.507,2.062-3.358,3.562c-2.945,5.094-1.203,11.625,3.897,14.562c3.617,2.093,7.945,1.812,11.211-0.344v0.016
	l14.406-9.516l33.717,19.468l-33.717,19.469l-14.406-9.516v0.016c-3.266-2.156-7.594-2.438-11.211-0.344
	c-5.101,2.938-6.843,9.469-3.897,14.562c0.852,1.484,2.022,2.672,3.358,3.562l0,0l5.5,3.641l-3.531,2.031
	c-5.101,2.953-6.843,9.469-3.898,14.578c2.945,5.093,9.461,6.843,14.57,3.905l3.516-2.046l0.406,6.577l0,0
	c0.094,1.609,0.547,3.219,1.406,4.703c2.938,5.094,9.469,6.844,14.562,3.906c3.625-2.094,5.547-5.984,5.312-9.875h0.016
	l-1.047-17.233l44.389-25.624l44.373,25.624l-1.031,17.233h0.016c-0.234,3.891,1.688,7.781,5.297,9.875
	c5.109,2.938,11.625,1.188,14.578-3.906c0.859-1.484,1.297-3.094,1.406-4.703l0,0l0.391-6.577l3.531,2.046
	c5.109,2.938,11.624,1.188,14.577-3.905c2.938-5.109,1.188-11.625-3.906-14.578l-3.53-2.031l5.499-3.641l0,0
	C434.531,186.852,435.687,185.665,436.547,184.18z"/>
<path style="fill:#4FC2E9;" d="M378.08,225.117L378.08,225.117l-15.437-7.719V102.59l15.437-7.719v-0.016
	c3.5-1.749,5.906-5.358,5.906-9.53c0-5.891-4.781-10.672-10.672-10.672c-1.719,0-3.327,0.422-4.765,1.141v-0.016l-5.906,2.953
	v-4.078c0-5.891-4.766-10.655-10.656-10.655s-10.672,4.765-10.672,10.655l0,0v4.078l-5.891-2.938l0,0
	c-1.438-0.719-3.062-1.141-4.766-1.141c-5.905,0-10.671,4.781-10.671,10.672c0,4.172,2.406,7.781,5.891,9.53v0.016l15.437,7.719
	v114.809l-15.437,7.719l0,0c-3.484,1.75-5.891,5.359-5.891,9.531c0,5.905,4.766,10.671,10.671,10.671
	c1.703,0,3.328-0.406,4.766-1.125l0,0l5.891-2.953v4.078l0,0c0,5.891,4.781,10.672,10.672,10.672s10.656-4.781,10.656-10.672v-4.078
	l5.906,2.953l0,0c1.438,0.719,3.046,1.125,4.765,1.125c5.891,0,10.672-4.766,10.672-10.671
	C383.986,230.476,381.58,226.867,378.08,225.117z"/>
<path style="fill:#5D9CEC;" d="M327.096,199.102c-27.857,0-53.045,11.452-71.106,29.89c-18.069-18.438-43.249-29.89-71.107-29.89
	c-54.982,0-99.551,44.576-99.551,99.543c0,113.777,170.658,213.337,170.658,213.337s170.667-99.56,170.667-213.337
	C426.657,243.679,382.08,199.102,327.096,199.102z"/>
<g style="opacity:0.2;">
	<path style="fill:#FFFFFF;" d="M327.096,199.102c-3.608,0-7.171,0.203-10.671,0.562c49.968,5.328,88.888,47.607,88.888,98.98
		c0,96.466-122.652,182.682-159.987,206.712c6.703,4.312,10.664,6.625,10.664,6.625s170.667-99.56,170.667-213.337
		C426.657,243.679,382.08,199.102,327.096,199.102z"/>
</g>
<path style="fill:#3BAFDA;" d="M244.561,120.183c2.945-5.094,1.195-11.625-3.906-14.578c-3.617-2.078-7.937-1.797-11.203,0.344
	h-0.008l-14.398,9.516l-33.717-19.469l33.717-19.468l14.398,9.516l0.008-0.016c3.266,2.156,7.586,2.438,11.203,0.344
	c5.102-2.938,6.852-9.469,3.906-14.562c-0.859-1.5-2.023-2.688-3.367-3.562l0.008-0.016l-5.5-3.624l3.523-2.047l0,0l0,0
	c5.101-2.938,6.851-9.469,3.906-14.562c-2.945-5.109-9.468-6.859-14.57-3.906l-3.531,2.031l-0.391-6.578h-0.008
	c-0.102-1.594-0.547-3.203-1.406-4.687c-2.945-5.109-9.469-6.859-14.57-3.906c-3.617,2.078-5.531,5.968-5.305,9.874h-0.008
	l1.031,17.234l-44.381,25.624l-44.38-25.625l1.039-17.234h-0.016c0.234-3.906-1.688-7.796-5.305-9.874
	c-5.101-2.953-11.625-1.203-14.57,3.906c-0.852,1.483-1.305,3.093-1.398,4.687h-0.008l-0.398,6.578l-3.523-2.031
	c-5.102-2.953-11.625-1.203-14.57,3.906c-2.953,5.094-1.203,11.625,3.898,14.562l3.531,2.047l-5.5,3.624v0.016
	c-1.336,0.875-2.508,2.062-3.359,3.562c-2.945,5.094-1.203,11.625,3.898,14.562c3.617,2.094,7.945,1.812,11.21-0.344v0.016
	l14.406-9.516l33.717,19.468l-33.717,19.469l-14.406-9.516l0,0c-3.266-2.141-7.594-2.422-11.21-0.344
	c-5.102,2.953-6.844,9.484-3.898,14.578c0.852,1.484,2.023,2.672,3.359,3.562l0,0l5.5,3.641l-3.531,2.031
	c-5.101,2.953-6.843,9.469-3.898,14.578c2.945,5.094,9.468,6.844,14.57,3.906l3.523-2.047l0.398,6.577h0.008
	c0.094,1.609,0.547,3.219,1.398,4.703c2.945,5.094,9.469,6.844,14.57,3.906c3.617-2.094,5.539-5.984,5.305-9.874h0.016
	l-1.039-17.234l44.381-25.624l44.381,25.624l-1.031,17.234h0.008c-0.227,3.89,1.688,7.78,5.305,9.874
	c5.101,2.938,11.625,1.188,14.57-3.906c0.859-1.484,1.305-3.094,1.406-4.703h0.008l0.391-6.577l3.531,2.047
	c5.102,2.938,11.625,1.188,14.57-3.906c2.945-5.109,1.195-11.625-3.906-14.578l-3.523-2.031l5.5-3.641h-0.008
	C242.537,122.855,243.701,121.668,244.561,120.183z"/>
<path style="fill:#4FC2E9;" d="M186.094,161.119L186.094,161.119l-15.437-7.719V38.592l15.437-7.718v-0.016
	c3.492-1.75,5.898-5.359,5.898-9.531c0-5.891-4.773-10.672-10.664-10.672c-1.719,0-3.328,0.422-4.766,1.141l-0.008-0.016
	l-5.898,2.953v-4.078c0-5.89-4.773-10.655-10.664-10.655s-10.664,4.766-10.664,10.655l0,0v4.078l-5.898-2.938l0,0
	c-1.438-0.719-3.055-1.141-4.766-1.141c-5.89,0-10.671,4.781-10.671,10.672c0,4.172,2.406,7.781,5.898,9.531v0.016l15.437,7.718
	V153.4l-15.437,7.719l0,0c-3.492,1.75-5.898,5.359-5.898,9.531c0,5.906,4.781,10.672,10.671,10.672c1.711,0,3.328-0.406,4.766-1.141
	v0.016l5.898-2.953v4.078l0,0c0,5.89,4.773,10.671,10.664,10.671s10.664-4.781,10.664-10.671v-4.078l5.898,2.953l0.008-0.016
	c1.438,0.734,3.047,1.141,4.766,1.141c5.89,0,10.664-4.766,10.664-10.672C191.992,166.478,189.586,162.869,186.094,161.119z"/>
</svg>