<?xml version="1.0" encoding="iso-8859-1"?>
<!-- Uploaded to: SVG Repo, www.svgrepo.com, Generator: SVG Repo Mixer Tools -->
<svg height="800px" width="800px" version="1.1" id="Layer_1" xmlns="http://www.w3.org/2000/svg" xmlns:xlink="http://www.w3.org/1999/xlink" 
	 viewBox="0 0 495.207 495.207" xml:space="preserve">
<path style="fill:#FF50A0;" d="M336.8,11.603c-34.4,0-64.8,20.8-88.8,40c-24-18.4-54.4-40-88.8-40c-88,0-159.2,71.2-159.2,159.2
	c0,47.2,20.8,92,57.6,122.4l178.4,178.4l12,12l9.6-11.2l180-180c36.8-30.4,57.6-75.2,57.6-122.4
	C496,82.803,424.8,11.603,336.8,11.603z"/>
<path style="fill:#DD2A73;" d="M336.8,46.003c-34.4,0-64.8,20.8-88.8,40c-24-18.4-54.4-40-88.8-40c-81.6,0-149.6,62.4-158.4,141.6
	c4.8,40.8,24.8,78.4,56.8,104.8l178.4,179.2l12,12l9.6-11.2l180-180c32-26.4,52-64,56.8-104.8
	C486.4,108.403,418.4,46.003,336.8,46.003z"/>
<path style="fill:#C61867;" d="M248,274.003c-24-18.4-54.4-40-88.8-40c-44.8,0-84.8,18.4-113.6,48c4,4,7.2,7.2,12,10.4l178.4,179.2
	l12,12l9.6-11.2l180-180c4-3.2,8-7.2,12-10.4c-28.8-29.6-68.8-48-113.6-48C302.4,234.003,272,254.803,248,274.003z"/>
</svg>