<?xml version="1.0" encoding="iso-8859-1"?>
<!-- Uploaded to: SVG Repo, www.svgrepo.com, Generator: SVG Repo Mixer Tools -->
<!DOCTYPE svg PUBLIC "-//W3C//DTD SVG 1.1//EN" "http://www.w3.org/Graphics/SVG/1.1/DTD/svg11.dtd">
<svg fill="#000000" version="1.1" id="Capa_1" xmlns="http://www.w3.org/2000/svg" xmlns:xlink="http://www.w3.org/1999/xlink" 
	 width="800px" height="800px" viewBox="0 0 187.059 187.059"
	 xml:space="preserve">
<g>
	<path d="M185.792,81.442c-4.999-2.63-10.267-4.338-15.589-5.861c0.122-1.315,0.238-2.631,0.238-4.004
		c0-16.56-9.03-31.861-23.59-39.911c-17.287-9.423-39.476-6.293-53.322,6.878C79.631,25.379,57.509,22.261,40.149,31.69
		c-14.529,8.025-23.532,23.3-23.532,39.887c0,4.832,0.773,9.584,2.137,13.625c0.165,0.697,0.387,1.452,0.636,2.219
		c-5.468-1.47-10.787-3.297-15.868-5.979c-0.715-0.38-1.671-0.338-2.363,0.076C0.423,81.959,0,82.739,0,83.573v31.895
		c0,0.907,0.493,1.711,1.267,2.144c12.151,6.376,25.133,9.481,39.637,9.481c2.506,0,5.026-0.281,7.551-0.439
		c4.521,6.346,30.957,24.747,42.368,32.529l2.427,1.656l2.558-1.389c1.57-0.853,38.373-20.91,59.187-49.761
		c10.12,1.035,19.692,3.288,28.546,7.928c0.742,0.366,1.687,0.366,2.362-0.073c0.73-0.438,1.157-1.205,1.157-2.058V83.594
		C187.059,82.702,186.566,81.871,185.792,81.442z M28.777,85.32c-0.238-0.767-0.493-1.546-0.78-2.7
		c-1.175-3.511-1.76-7.228-1.76-11.043c0-13.095,7.122-25.16,18.545-31.469c14.994-8.187,34.343-4.359,45.051,8.549l3.708,4.458
		l3.715-4.458c10.729-12.982,29.971-16.76,44.998-8.574c11.473,6.366,18.578,18.417,18.578,31.493c0,0.679-0.073,1.34-0.128,2.021
		c-2.478-0.393-5.023-0.648-7.587-0.849c0.213-0.387,0.475-0.697,0.475-1.172c0-10.47-5.675-20.115-14.833-25.16
		c-4.323-2.362-8.987-3.553-13.871-3.553c-1.339,0-2.398,1.053-2.398,2.393c0,1.337,1.06,2.396,2.398,2.396
		c4.044,0,7.94,1.011,11.558,2.999c7.611,4.201,12.337,12.227,12.337,20.925c0,0.292,0.207,0.475,0.286,0.704
		c-1.005-0.024-1.906-0.329-2.941-0.329c-17.829,0-35.841,4.719-53.229,9.292c-17.104,4.487-34.781,9.134-52.014,9.134
		c-3.909,0-7.477-0.773-11.191-1.267C29.487,87.856,29.149,86.566,28.777,85.32z M93.767,149.556
		c-12.653-8.702-26.22-18.578-33.122-24.278c11.292-1.784,22.496-4.597,33.493-7.483c16.173-4.256,32.869-8.482,49.23-8.969
		C126.655,129.345,101.713,144.909,93.767,149.556z M182.273,111.595c-10.589-4.943-21.915-7.318-34.246-7.55l-0.548-0.384
		c-0.061,0.104-0.158,0.183-0.225,0.305c-0.384,0-0.731-0.122-1.103-0.122c-17.841,0-35.841,4.726-53.234,9.292
		c-17.107,4.494-34.784,9.134-52.014,9.134c-13.213,0-25.048-2.704-36.121-8.281V87.439c11.144,5.212,22.996,7.745,36.121,7.745
		c17.832,0,35.841-4.728,53.234-9.292c17.099-4.494,34.775-9.134,52.014-9.134c13.214,0,25.038,2.707,36.121,8.281V111.595z"/>
</g>
</svg>