<?xml version="1.0" encoding="iso-8859-1"?>
<!-- Uploaded to: SVG Repo, www.svgrepo.com, Generator: SVG Repo Mixer Tools -->
<!DOCTYPE svg PUBLIC "-//W3C//DTD SVG 1.1//EN" "http://www.w3.org/Graphics/SVG/1.1/DTD/svg11.dtd">
<svg fill="#000000" version="1.1" id="Capa_1" xmlns="http://www.w3.org/2000/svg" xmlns:xlink="http://www.w3.org/1999/xlink" 
	 width="800px" height="800px" viewBox="0 0 196.207 196.207"
	 xml:space="preserve">
<g>
	<path d="M194.347,74.91l-54.431-54.391c-2.479-2.487-6.54-2.487-9.024,0L98.108,53.284L65.324,20.519
		c-2.488-2.487-6.549-2.487-9.024,0L1.866,74.91c-2.487,2.488-2.487,6.521,0,9.027l36.645,36.654
		c0.189,0.249,0.375,0.487,0.594,0.694l54.428,54.395c1.215,1.181,2.837,1.875,4.521,1.875h0.061c1.689,0,3.297-0.67,4.521-1.875
		l54.483-54.395c0.207-0.214,0.396-0.445,0.597-0.683l36.645-36.666C196.825,81.431,196.825,77.397,194.347,74.91z M148.015,112.236
		c-0.213,0.213-0.396,0.45-0.597,0.682L98.071,162.18l-49.279-49.249c-0.186-0.25-0.372-0.487-0.591-0.706L15.414,79.422
		l45.389-45.374l32.778,32.766c2.494,2.487,6.549,2.487,9.031,0l32.787-32.766l45.395,45.374L148.015,112.236z M137.645,45.316
		l31.877,31.85c0.634,0.611,0.932,1.416,0.932,2.256c0,0.843-0.311,1.653-0.932,2.259l-27.023,27.024
		c-0.621,0.621-1.425,0.932-2.229,0.932c-0.811,0-1.632-0.317-2.235-0.932c-1.254-1.249-1.254-3.271,0-4.519l24.747-24.765
		l-29.605-29.594c-1.249-1.245-1.249-3.267,0-4.512C134.411,44.074,136.409,44.074,137.645,45.316z"/>
</g>
</svg>