<?xml version="1.0" encoding="iso-8859-1"?>
<!-- Uploaded to: SVG Repo, www.svgrepo.com, Generator: SVG Repo Mixer Tools -->
<!DOCTYPE svg PUBLIC "-//W3C//DTD SVG 1.1//EN" "http://www.w3.org/Graphics/SVG/1.1/DTD/svg11.dtd">
<svg fill="#000000" version="1.1" id="Capa_1" xmlns="http://www.w3.org/2000/svg" xmlns:xlink="http://www.w3.org/1999/xlink" 
	 width="800px" height="800px" viewBox="0 0 86.541 86.54"
	 xml:space="preserve">
<g>
	<path d="M86.185,13.203c-0.21-0.573-0.818-0.904-1.366-0.724c-0.824,0.27-1.649,0.531-2.474,0.792
		c-4.717,1.492-9.594,3.036-13.746,6.149c-1.498,1.123-2.129,2.027-2.271,2.952c-2.652-2.31-5.976-3.872-9.645-4.316l-1.19-0.108
		c-0.327-0.018-0.657-0.028-0.989-0.028c-4.202,0-8.167,1.419-11.371,4.035c-3.204-2.616-7.169-4.035-11.372-4.035
		c-0.31,0-0.618,0.008-0.925,0.023l-1.191,0.105c-3.587,0.421-6.846,1.912-9.476,4.125c-0.198-0.857-0.839-1.71-2.229-2.752
		c-4.153-3.113-9.03-4.657-13.746-6.149c-0.824-0.261-1.649-0.522-2.474-0.792c-0.548-0.18-1.156,0.151-1.366,0.725
		C-0.774,16.313,1,18.498,2.714,20.612c1.549,1.908,3.012,3.71,2.385,6.15c-0.143,0.555-0.299,1.073-0.448,1.571
		c-0.59,1.957-1.1,3.647-0.389,5.989c0.417,1.376,1.57,2.073,2.687,2.748c0.889,0.537,1.728,1.045,2.1,1.85
		c0.414,0.895,0.072,1.747-0.322,2.733c-0.473,1.18-1.008,2.517-0.209,4.083c0.925,1.809,2.324,3.397,4.281,4.858
		c4.029,3.011,9.105,5.791,15.518,8.499c0.051,0.021,0.102,0.018,0.152,0.033l12.986,14.247c0.429,0.47,1.034,0.736,1.67,0.737
		h0.002c0.636,0,1.241-0.267,1.67-0.735l12.976-14.186c0.147-0.007,0.301-0.032,0.451-0.097c6.413-2.708,11.488-5.488,15.519-8.499
		c1.957-1.461,3.356-3.051,4.281-4.858c0.799-1.564,0.264-2.902-0.209-4.083c-0.396-0.986-0.736-1.838-0.322-2.733
		c0.372-0.805,1.211-1.313,2.1-1.85c1.116-0.675,2.271-1.372,2.688-2.748c0.711-2.342,0.201-4.032-0.389-5.989
		c-0.149-0.498-0.307-1.016-0.448-1.571c-0.627-2.44,0.836-4.243,2.385-6.15C85.541,18.497,87.314,16.312,86.185,13.203z
		 M13.396,49.791c-1.83-1.368-3.136-2.845-3.988-4.514c-0.593-1.159-0.185-2.177,0.247-3.255c0.42-1.049,0.896-2.238,0.302-3.524
		c-0.501-1.083-1.513-1.695-2.491-2.287c-0.997-0.604-1.94-1.173-2.246-2.182c-0.623-2.053-0.177-3.534,0.389-5.41
		c0.154-0.511,0.313-1.042,0.46-1.61c0.752-2.928-0.94-5.013-2.577-7.03c-1.61-1.984-3.132-3.858-2.196-6.434
		c0.027-0.076,0.085-0.118,0.114-0.118c0,0,0.001,0,0.002,0c0.826,0.271,1.655,0.533,2.482,0.795
		c4.85,1.535,9.431,2.984,13.448,5.995c1.506,1.129,1.974,1.843,1.889,2.793c-3.392,3.281-5.511,7.869-5.511,12.949
		c0,2.167,0.397,4.27,1.184,6.296l1.504,3.034c0.61,1.004,1.322,1.984,2.139,2.941c0.016,0.02,0.033,0.038,0.049,0.057l8.278,9.082
		C21.398,54.948,16.968,52.46,13.396,49.791z M80.472,27.01c0.146,0.568,0.306,1.1,0.46,1.61c0.564,1.876,1.012,3.357,0.389,5.41
		c-0.306,1.009-1.249,1.579-2.246,2.182c-0.979,0.592-1.99,1.204-2.491,2.286c-0.594,1.286-0.118,2.475,0.303,3.524
		c0.432,1.078,0.84,2.096,0.246,3.255c-0.853,1.668-2.157,3.146-3.987,4.514c-3.656,2.729-8.213,5.272-13.867,7.75l8.388-9.169
		c0.025-0.028,0.051-0.057,0.074-0.085c0.777-0.941,1.456-1.889,2.042-2.846l1.538-3.053c0.822-2.074,1.229-4.206,1.229-6.427
		c0-4.917-1.989-9.366-5.19-12.623c-0.226-1.124,0.168-1.866,1.842-3.12c4.019-3.011,8.599-4.46,13.448-5.995
		c0.827-0.262,1.656-0.524,2.492-0.797c0.019,0,0.078,0.042,0.105,0.119c0.937,2.576-0.586,4.45-2.196,6.435
		C81.413,21.997,79.72,24.082,80.472,27.01z"/>
</g>
</svg>