<?xml version="1.0" encoding="iso-8859-1"?>
<!-- Uploaded to: SVG Repo, www.svgrepo.com, Generator: SVG Repo Mixer Tools -->
<!DOCTYPE svg PUBLIC "-//W3C//DTD SVG 1.1//EN" "http://www.w3.org/Graphics/SVG/1.1/DTD/svg11.dtd">
<svg fill="#000000" version="1.1" id="Capa_1" xmlns="http://www.w3.org/2000/svg" xmlns:xlink="http://www.w3.org/1999/xlink" 
	 width="800px" height="800px" viewBox="0 0 162.739 162.74"
	 xml:space="preserve">
<g>
	<path d="M122.7,4.291c-13.171-7.271-30.409-5.063-41.309,4.905C70.479-0.76,53.351-3,40.046,4.291
		c-11.387,6.278-18.469,18.273-18.469,31.283c0,3.727,0.603,7.438,1.666,10.604c2.768,12.446,14.416,21.257,26.741,30.598
		c2.496,1.894,5.008,3.796,7.459,5.742c9.009,7.164,17.171,18.953,19.498,22.46v29.557l-23.727,9.986
		c-2.25,0.956-3.309,3.55-2.369,5.81c0.712,1.692,2.356,2.722,4.083,2.722c0.575,0,1.16-0.122,1.723-0.354l20.283-8.543v14.151
		c0,2.447,1.988,4.433,4.433,4.433s4.433-1.985,4.433-4.433v-14.225l21.391,8.324c2.235,0.871,4.854-0.237,5.736-2.515
		c0.889-2.284-0.243-4.854-2.509-5.749l-24.612-9.571v-8.567l15.04-8.61c2.132-1.218,2.862-3.921,1.656-6.047
		c-1.218-2.131-3.934-2.831-6.053-1.656l-10.644,6.096v-10.754c2.207-3.373,10.145-15.052,19.011-22.079
		c2.436-1.927,4.932-3.803,7.429-5.688c12.032-9.069,24.466-18.443,27.157-30.658c1.169-3.547,1.76-7.256,1.76-11.028
		C141.162,22.552,134.087,10.569,122.7,4.291z M130.865,44.245c-2.095,9.441-12.714,17.455-23.954,25.928
		c-2.546,1.915-5.115,3.849-7.612,5.818c-7.38,5.861-14.005,14.301-17.932,19.817c-4.022-5.584-10.842-14.206-18.414-20.229
		c-2.5-1.991-5.069-3.937-7.639-5.87c-10.985-8.323-21.373-16.197-23.55-25.888c-0.886-2.694-1.328-5.468-1.328-8.263
		c0-9.789,5.319-18.792,13.874-23.52C48.3,9.86,52.784,8.7,57.275,8.7c8.01,0,15.561,3.541,20.707,9.733
		c0.84,1.002,2.088,1.602,3.403,1.602c1.315-0.013,2.576-0.6,3.398-1.614c8.013-9.654,22.567-12.458,33.625-6.381
		c8.562,4.728,13.89,13.731,13.89,23.52C132.297,38.396,131.876,41.185,130.865,44.245z M127.876,35.574
		c0,2.356-0.384,4.677-1.114,6.881c-0.305,0.932-1.176,1.517-2.107,1.517c-0.213,0-0.456-0.043-0.688-0.119
		c-1.163-0.38-1.791-1.632-1.407-2.798c0.591-1.754,0.883-3.599,0.883-5.48c0-6.555-3.55-12.589-9.279-15.759
		c-2.704-1.488-5.633-2.25-8.701-2.25c-1.218,0-2.217-0.993-2.217-2.213c0-1.224,0.999-2.214,2.217-2.214
		c3.823,0,7.478,0.947,10.838,2.811C123.442,19.879,127.876,27.406,127.876,35.574z M65.547,120.377
		c-6.29-0.822-7.015-15.07-7.015-15.07s2.445,0.956,8.75,1.777c6.291,0.78,7.039,15.071,7.039,15.071S71.883,121.206,65.547,120.377
		z"/>
</g>
</svg>