<?xml version="1.0" encoding="iso-8859-1"?>
<!-- Uploaded to: SVG Repo, www.svgrepo.com, Generator: SVG Repo Mixer Tools -->
<!DOCTYPE svg PUBLIC "-//W3C//DTD SVG 1.1//EN" "http://www.w3.org/Graphics/SVG/1.1/DTD/svg11.dtd">
<svg fill="#000000" version="1.1" id="Capa_1" xmlns="http://www.w3.org/2000/svg" xmlns:xlink="http://www.w3.org/1999/xlink" 
	 width="800px" height="800px" viewBox="0 0 187.059 187.059"
	 xml:space="preserve">
<g>
	<path d="M187.059,58.289c0-20.368-11.083-39.104-28.912-48.914c-20.696-11.472-47.617-7.946-64.6,7.672
		C76.443,1.458,49.639-2.061,28.887,9.375C11.079,19.184,0,37.92,0,58.289c0,5.846,0.928,11.667,2.588,16.568
		c3.349,15.022,15.981,31.122,30.646,45.468L4.208,147.854c-0.929,0.895-1.303,2.229-0.947,3.465
		c0.356,1.242,1.391,2.197,2.658,2.436l23.258,4.67l4.631,23.236c0.255,1.254,1.184,2.266,2.402,2.643
		c0.317,0.109,0.655,0.135,0.996,0.135c0.91,0,1.796-0.348,2.457-1.018l31.457-31.73c10.102,7.307,17.795,12.281,18.746,12.891
		l3.684,2.326l3.685-2.326c0.913-0.591,7.964-5.151,17.372-11.874l29.161,30.678c0.651,0.669,1.57,1.054,2.496,1.054
		c0.323,0,0.646-0.037,0.962-0.135c1.242-0.341,2.187-1.357,2.442-2.643l4.634-23.236l23.248-4.67
		c1.236-0.238,2.234-1.121,2.618-2.302c0.39-1.218,0.11-2.491-0.742-3.416l-25.514-27.7c14.577-14.205,27.114-30.062,30.372-44.791
		C186.133,69.956,187.059,64.134,187.059,58.289z M39.339,173.909l-3.824-19.107c-0.268-1.389-1.352-2.436-2.725-2.703
		l-18.974-3.824l24.555-23.303c9.216,8.519,18.657,16.264,27.112,22.59L39.339,173.909z M150.682,152.098
		c-1.376,0.268-2.46,1.314-2.728,2.703l-3.782,18.943l-23.912-25.166c8.812-6.527,18.773-14.578,28.534-23.577l21.36,23.181
		L150.682,152.098z M170.941,71.849c-6.022,27.06-54.814,63.82-77.394,78.636c-22.597-14.815-71.444-51.612-77.615-79.293
		c-1.373-4.189-2.064-8.519-2.064-12.909c0-15.296,8.318-29.405,21.699-36.803c6.241-3.422,13.244-5.212,20.276-5.212
		c12.532,0,24.317,5.554,32.373,15.217l5.344,6.424l5.315-6.424c12.586-15.192,35.184-19.521,52.604-10.004
		c13.39,7.404,21.708,21.507,21.708,36.803C173.188,62.697,172.5,67.014,170.941,71.849z M166.277,58.289
		c0,3.653-0.591,7.282-1.724,10.766c-0.499,1.449-1.839,2.368-3.301,2.368c-0.353,0-0.725-0.036-1.083-0.17
		c-1.815-0.572-2.813-2.533-2.211-4.36c0.92-2.801,1.395-5.675,1.395-8.585c0-10.26-5.577-19.692-14.528-24.625
		c-4.238-2.375-8.817-3.55-13.628-3.55c-1.912,0-3.471-1.522-3.471-3.453c0-1.937,1.559-3.447,3.471-3.447
		c5.985,0,11.703,1.443,16.977,4.348C159.323,33.725,166.277,45.501,166.277,58.289z"/>
</g>
</svg>