<?xml version="1.0" ?><!-- Uploaded to: SVG Repo, www.svgrepo.com, Generator: SVG Repo Mixer Tools -->
<svg fill="#000000" width="800px" height="800px" viewBox="0 0 100 100" data-name="Layer 1" id="Layer_1" xmlns="http://www.w3.org/2000/svg"><title/><path d="M42.42022,68.70319l1.90585-.64042a1.06886,1.06886,0,0,0,.64972-1.3266A.99051.99051,0,0,0,43.71966,66.05l-1.90585.64043a1.06886,1.06886,0,0,0-.64972,1.32659A.99051.99051,0,0,0,42.42022,68.70319Zm-7.6234,2.5617,1.90585-.64042a1.06887,1.06887,0,0,0,.64972-1.3266.99051.99051,0,0,0-1.25613-.68617l-1.90585.64042a1.06888,1.06888,0,0,0-.64972,1.3266A.99052.99052,0,0,0,34.79682,71.26489Zm-7.6234,2.5617,1.90585-.64043a1.06885,1.06885,0,0,0,.64972-1.32659.99051.99051,0,0,0-1.25613-.68617l-1.90585.64043a1.06885,1.06885,0,0,0-.64972,1.32659A.99051.99051,0,0,0,27.17342,73.82659ZM19.55,76.3883l1.90586-.64043a1.06887,1.06887,0,0,0,.64972-1.3266.99051.99051,0,0,0-1.25613-.68616l-1.90585.64042a1.06887,1.06887,0,0,0-.64973,1.3266A.99052.99052,0,0,0,19.55,76.3883ZM11.92661,78.95l1.90585-.64043a1.06885,1.06885,0,0,0,.64972-1.32659.99051.99051,0,0,0-1.25613-.68617l-1.90585.64043a1.06885,1.06885,0,0,0-.64972,1.32659A.99051.99051,0,0,0,11.92661,78.95Z"/><path d="M58.18618,66.69043,56.28033,66.05a.99051.99051,0,0,0-1.25613.68617,1.06887,1.06887,0,0,0,.64972,1.3266l1.90585.64042A.99051.99051,0,0,0,58.8359,68.017,1.06885,1.06885,0,0,0,58.18618,66.69043Zm7.6234,2.56169-1.90585-.64042a.99052.99052,0,0,0-1.25613.68617,1.06887,1.06887,0,0,0,.64972,1.3266l1.90585.64042a.99051.99051,0,0,0,1.25613-.68617A1.06886,1.06886,0,0,0,65.80958,69.25212Zm7.6234,2.56171-1.90585-.64043a.99051.99051,0,0,0-1.25613.68617,1.06886,1.06886,0,0,0,.64972,1.32659l1.90585.64043a.99051.99051,0,0,0,1.25613-.68617A1.06886,1.06886,0,0,0,73.433,71.81383Zm7.6234,2.5617-1.90584-.64042a.9905.9905,0,0,0-1.25613.68616,1.06887,1.06887,0,0,0,.64972,1.3266L80.45,76.3883a.99051.99051,0,0,0,1.25613-.68617A1.06887,1.06887,0,0,0,81.05638,74.37553Zm7.62341,2.56171-1.90585-.64043a.99051.99051,0,0,0-1.25613.68617,1.06886,1.06886,0,0,0,.64972,1.32659l1.90585.64043a.99051.99051,0,0,0,1.25613-.68617A1.06886,1.06886,0,0,0,88.67979,76.93724Z"/><path d="M50,9a1.003,1.003,0,0,0-1,1v2a1,1,0,0,0,2,0V10A1.003,1.003,0,0,0,50,9Zm0,8a1.003,1.003,0,0,0-1,1v2a1,1,0,0,0,2,0V18A1.003,1.003,0,0,0,50,17Zm0,8a1.003,1.003,0,0,0-1,1v2a1,1,0,0,0,2,0V26A1.003,1.003,0,0,0,50,25Z"/><path d="M94.98,19.8a1.00729,1.00729,0,0,0-.78-.78L50.3,5.05a.88322.88322,0,0,0-.6,0L5.8,19.02a1.00729,1.00729,0,0,0-.78.78A1.22986,1.22986,0,0,0,5,20V80a1.22986,1.22986,0,0,0,.02.2.99414.99414,0,0,0,.68.75l.1.03L49.61,94.92l.09.03a.88393.88393,0,0,0,.6,0l.09-.03L94.3,80.95A.99621.99621,0,0,0,95,80V20A1.22986,1.22986,0,0,0,94.98,19.8ZM50,7.05,90.7,20,50,32.95,9.3,20ZM7,21.36,49,34.73v57.9L7,79.27ZM93,79.27,51,92.63V34.73L93,21.36Z"/></svg>