<?xml version="1.0" ?><!-- Uploaded to: SVG Repo, www.svgrepo.com, Generator: SVG Repo Mixer Tools -->
<svg fill="#000000" width="800px" height="800px" viewBox="0 0 100 100" data-name="Layer 1" id="Layer_1" xmlns="http://www.w3.org/2000/svg"><title/><path d="M14.64832,76.29681l-1.93909.64045a1.06448,1.06448,0,0,0-.66107,1.32653,1.01051,1.01051,0,0,0,1.278.68616l1.93915-.64038a1.0645,1.0645,0,0,0,.661-1.3266A1.01052,1.01052,0,0,0,14.64832,76.29681Z"/><path d="M22.40466,73.73511l-1.93908.64044a1.0644,1.0644,0,0,0-.661,1.32654,1.01056,1.01056,0,0,0,1.278.68622l1.93909-.64045a1.06458,1.06458,0,0,0,.66107-1.3266A1.01061,1.01061,0,0,0,22.40466,73.73511Z"/><path d="M36.59528,71.26489l1.93914-.64044a1.06452,1.06452,0,0,0,.661-1.3266,1.01051,1.01051,0,0,0-1.278-.68616l-1.93909.64045a1.06448,1.06448,0,0,0-.66107,1.32653A1.01058,1.01058,0,0,0,36.59528,71.26489Z"/><path d="M28.83893,73.8266l1.93915-.64044a1.06453,1.06453,0,0,0,.661-1.3266,1.01052,1.01052,0,0,0-1.278-.68616l-1.93909.64044a1.06449,1.06449,0,0,0-.66107,1.32654A1.01055,1.01055,0,0,0,28.83893,73.8266Z"/><path d="M44.35168,68.70319l1.93909-.64045a1.06454,1.06454,0,0,0,.66107-1.32659A1.0106,1.0106,0,0,0,45.67377,66.05l-1.93909.64044a1.06445,1.06445,0,0,0-.661,1.3266A1.01052,1.01052,0,0,0,44.35168,68.70319Z"/><path d="M84.73468,78.30957l1.93909.64038a1.01055,1.01055,0,0,0,1.27807-.68616,1.06448,1.06448,0,0,0-.66107-1.32653l-1.93909-.64045a1.01052,1.01052,0,0,0-1.278.68616A1.0645,1.0645,0,0,0,84.73468,78.30957Z"/><path d="M56.26532,66.69043,54.32623,66.05a1.0106,1.0106,0,0,0-1.27807.68616,1.06454,1.06454,0,0,0,.66107,1.32659l1.93909.64045a1.01052,1.01052,0,0,0,1.278-.68616A1.06445,1.06445,0,0,0,56.26532,66.69043Z"/><path d="M64.02167,69.25214l-1.93909-.64045a1.01051,1.01051,0,0,0-1.278.68616,1.06446,1.06446,0,0,0,.661,1.3266l1.93908.64044a1.01062,1.01062,0,0,0,1.27808-.68622A1.06448,1.06448,0,0,0,64.02167,69.25214Z"/><path d="M76.97833,75.74786l1.93909.64045a1.01056,1.01056,0,0,0,1.278-.68622,1.0644,1.0644,0,0,0-.661-1.32654l-1.93908-.64044a1.01058,1.01058,0,0,0-1.27808.68615A1.06458,1.06458,0,0,0,76.97833,75.74786Z"/><path d="M71.778,71.81384l-1.93909-.64044a1.01052,1.01052,0,0,0-1.278.68616,1.06448,1.06448,0,0,0,.661,1.3266l1.93909.64044a1.01062,1.01062,0,0,0,1.27808-.68622A1.06449,1.06449,0,0,0,71.778,71.81384Z"/><path d="M50,17a1,1,0,0,0-1,1v2a1,1,0,0,0,2,0V18A1,1,0,0,0,50,17Z"/><path d="M50,9a1,1,0,0,0-1,1v2a1,1,0,0,0,2,0V10A1,1,0,0,0,50,9Z"/><path d="M50,25a1,1,0,0,0-1,1v2a1,1,0,0,0,2,0V26A1,1,0,0,0,50,25Z"/><path d="M29.293,47.95557l1.89062-.56916a.92956.92956,0,0,0,.64454-1.179,1.00418,1.00418,0,0,0-1.2461-.60986l-1.89062.56915a.92959.92959,0,0,0-.64453,1.179A1.00418,1.00418,0,0,0,29.293,47.95557Z"/><path d="M36.85547,45.679l1.89062-.56916a.92959.92959,0,0,0,.64453-1.179,1.00423,1.00423,0,0,0-1.24609-.60987l-1.89062.56916a.92965.92965,0,0,0-.64453,1.179A1.00419,1.00419,0,0,0,36.85547,45.679Z"/><path d="M44.41791,43.40234l1.89062-.56915a.92959.92959,0,0,0,.64453-1.179,1.0042,1.0042,0,0,0-1.24609-.60981l-1.89062.56916a.92956.92956,0,0,0-.64454,1.179A1.0042,1.0042,0,0,0,44.41791,43.40234Z"/><path d="M61.25391,45.1098l1.89062.56916a1.0041,1.0041,0,0,0,1.246-.60981.92958.92958,0,0,0-.64447-1.179L61.85547,43.321a1.00423,1.00423,0,0,0-1.24609.60987A.92955.92955,0,0,0,61.25391,45.1098Z"/><path d="M68.81635,47.38641l1.89062.56916a1.00418,1.00418,0,0,0,1.24609-.60987.92959.92959,0,0,0-.64453-1.179l-1.89062-.56915a1.00415,1.00415,0,0,0-1.2461.60986A.92951.92951,0,0,0,68.81635,47.38641Z"/><path d="M53.69147,42.83319l1.89062.56915a1.0042,1.0042,0,0,0,1.2461-.6098.9296.9296,0,0,0-.64454-1.179L54.293,41.04443a1.0042,1.0042,0,0,0-1.24609.60981A.92959.92959,0,0,0,53.69147,42.83319Z"/><path d="M75.2,50S94.82,20.57,94.83,20.55A.96681.96681,0,0,0,95,20a.9902.9902,0,0,0-.7-.95c-.03-.01-44-14-44-14a.88322.88322,0,0,0-.6,0s-43.97,13.99-44,14A.9902.9902,0,0,0,5,20a.96681.96681,0,0,0,.17.55C5.18,20.57,24.8,50,24.8,50S5.18,79.43,5.17,79.45A.96681.96681,0,0,0,5,80a.9902.9902,0,0,0,.7.95c.03.00995,44,14,44,14a.88393.88393,0,0,0,.6,0s43.97-13.99005,44-14A.9902.9902,0,0,0,95,80a.96681.96681,0,0,0-.17-.55C94.82,79.43,75.2,50,75.2,50Zm-1.84-.85L51,56.27V34.73L91.59,21.82ZM49,92.63,7.57,79.45,26.41,51.18,49,58.37Zm0-36.36L26.64,49.15,8.41,21.82,49,34.73ZM50,32.95,9.3,20,50,7.05,90.7,20Zm1,59.68V58.37l22.59-7.19L92.43,79.45Z"/></svg>