<?xml version="1.0" ?><!-- Uploaded to: SVG Repo, www.svgrepo.com, Generator: SVG Repo Mixer Tools -->
<svg fill="#000000" width="800px" height="800px" viewBox="0 0 100 100" data-name="Layer 1" id="Layer_1" xmlns="http://www.w3.org/2000/svg"><title/><path d="M88.534,29.15448l-38-24-.01807-.00812a.99432.99432,0,0,0-.18744-.08392c-.02069-.00726-.03973-.019-.06073-.0249a.97369.97369,0,0,0-.53552,0c-.021.00586-.04.01764-.06073.0249a.99432.99432,0,0,0-.18744.08392l-.01807.00812-38,24A.99708.99708,0,0,0,11,30V70a.99445.99445,0,0,0,.02307.18219c.00421.02258.00281.04565.00861.06793a.99112.99112,0,0,0,.09729.23981l.00195.00476c.01025.018.02564.03131.03687.04852a.98281.98281,0,0,0,.11456.15082.97281.97281,0,0,0,.09308.07678.99577.99577,0,0,0,.09057.07465l38,24a1.00013,1.00013,0,0,0,1.068,0l38-24a.9247.9247,0,0,0,.29821-.30225c.01123-.01721.02662-.03051.03687-.04852l.002-.00476a.99112.99112,0,0,0,.09729-.23981c.00611-.0235.0047-.04785.009-.07159A.99428.99428,0,0,0,89,70V30A.99708.99708,0,0,0,88.534,29.15448ZM13,31h2a.99524.99524,0,0,0,.34558-1.9303l31.67-20.00207L13,66.35706ZM50,92.81726,15.45605,71H35.72687a1.0216,1.0216,0,0,0,.12719.37341L36.88989,73.166a.96578.96578,0,0,0,1.34351.35186,1.023,1.023,0,0,0,.34247-1.38049L37.91864,71H62.08142l-.65729,1.13751a1.02305,1.02305,0,0,0,.34247,1.3805.96579.96579,0,0,0,1.34351-.35187l1.03583-1.7926A1.02221,1.02221,0,0,0,64.27319,71H84.544ZM13.75671,69,24.26038,51.30963l.19958.3454a.9658.9658,0,0,0,1.34351.35193,1.02312,1.02312,0,0,0,.34247-1.38056L25.416,49.36328,36.43591,30.80353A.97449.97449,0,0,0,37,31h2a1,1,0,0,0,0-2H37.50671L50,7.95868,62.49329,29H61a1,1,0,0,0,0,2h2a.9747.9747,0,0,0,.56409-.19653L74.584,49.36328l-.72992,1.26331a1.023,1.023,0,0,0,.34241,1.38049A.96587.96587,0,0,0,75.54,51.65515l.19965-.34546L86.24329,69ZM87,66.35706,52.98444,9.06763l31.67,20.00207A.99524.99524,0,0,0,85,31h2Z"/><path d="M29.25342,56.00415a.96579.96579,0,0,0-1.34351-.35187,1.02305,1.02305,0,0,0-.34247,1.3805l1.03583,1.7926a.96579.96579,0,0,0,1.34351.35187,1.02305,1.02305,0,0,0,.34247-1.3805Z"/><path d="M45.8266,84.68542a.96585.96585,0,0,0-1.34351-.35192,1.02311,1.02311,0,0,0-.34247,1.38055l1.03583,1.7926a.96582.96582,0,0,0,1.34351.35187,1.023,1.023,0,0,0,.34247-1.38049Z"/><path d="M16.82355,34.49323A.96584.96584,0,0,0,15.48,34.1413a1.02311,1.02311,0,0,0-.34247,1.38055l1.03583,1.7926a.96577.96577,0,0,0,1.34351.35187,1.023,1.023,0,0,0,.34247-1.38049Z"/><path d="M33.39673,63.1745a.9658.9658,0,0,0-1.34351-.35193,1.02311,1.02311,0,0,0-.34247,1.38055l1.03583,1.79255a.96586.96586,0,0,0,1.34351.35193,1.02313,1.02313,0,0,0,.34247-1.38056Z"/><path d="M41.68335,77.51514a.96587.96587,0,0,0-1.34357-.35193,1.023,1.023,0,0,0-.34247,1.38049l1.03583,1.7926a.96584.96584,0,0,0,1.34357.35187,1.02307,1.02307,0,0,0,.34247-1.38049Z"/><path d="M20.96686,41.66357a.96587.96587,0,0,0-1.34357-.35192,1.023,1.023,0,0,0-.34247,1.38049l1.03583,1.7926a.96585.96585,0,0,0,1.34357.35187,1.023,1.023,0,0,0,.34247-1.38049Z"/><path d="M72.09009,55.6524a.96579.96579,0,0,0-1.34351.35187l-1.03583,1.79261a1.023,1.023,0,0,0,.34247,1.38049.96578.96578,0,0,0,1.34351-.35187l1.03583-1.7926A1.02305,1.02305,0,0,0,72.09009,55.6524Z"/><path d="M55.51691,84.33362a.96584.96584,0,0,0-1.34351.35193l-1.03583,1.7926A1.023,1.023,0,0,0,53.48,87.85864a.96577.96577,0,0,0,1.34351-.35187l1.03583-1.7926A1.02311,1.02311,0,0,0,55.51691,84.33362Z"/><path d="M80.37671,41.31177a.96586.96586,0,0,0-1.34357.35193l-1.03583,1.79254a1.023,1.023,0,0,0,.34247,1.38049.96577.96577,0,0,0,1.34351-.35187l1.03583-1.7926A1.023,1.023,0,0,0,80.37671,41.31177Z"/><path d="M84.52,34.14148a.96577.96577,0,0,0-1.34351.35187L82.14062,36.286a1.023,1.023,0,0,0,.34247,1.38049.96578.96578,0,0,0,1.34351-.35186L84.86243,35.522A1.023,1.023,0,0,0,84.52,34.14148Z"/><path d="M59.66022,77.16333a.96587.96587,0,0,0-1.34357.35193L57.28082,79.3078a1.02309,1.02309,0,0,0,.34247,1.38055.96592.96592,0,0,0,1.34357-.35192l1.03583-1.79261A1.023,1.023,0,0,0,59.66022,77.16333Z"/><path d="M67.94678,62.82269a.96581.96581,0,0,0-1.34351.35193l-1.03583,1.79254a1.02312,1.02312,0,0,0,.34247,1.38056.96586.96586,0,0,0,1.34351-.35193l1.03583-1.79254A1.02312,1.02312,0,0,0,67.94678,62.82269Z"/><path d="M23,29H21a1,1,0,0,0,0,2h2a1,1,0,0,0,0-2Z"/><path d="M55,29H53a1,1,0,0,0,0,2h2a1,1,0,0,0,0-2Z"/><path d="M80,30a1,1,0,0,0-1-1H77a1,1,0,0,0,0,2h2A1,1,0,0,0,80,30Z"/><path d="M31,29H29a1,1,0,0,0,0,2h2a1,1,0,0,0,0-2Z"/><path d="M47,29H45a1,1,0,0,0,0,2h2a1,1,0,0,0,0-2Z"/><path d="M71,29H69a1,1,0,0,0,0,2h2a1,1,0,0,0,0-2Z"/></svg>