<?xml version="1.0" ?><!-- Uploaded to: SVG Repo, www.svgrepo.com, Generator: SVG Repo Mixer Tools -->
<svg fill="#000000" width="800px" height="800px" viewBox="0 0 100 100" data-name="Layer 1" id="Layer_1" xmlns="http://www.w3.org/2000/svg"><title/><path d="M49,18v2a1,1,0,0,0,2,0V18a1,1,0,0,0-2,0Zm0-8v2a1,1,0,0,0,2,0V10a1,1,0,0,0-2,0Z"/><path d="M94.971,79.761l-16-65c-.00269-.01123-.011-.01905-.01416-.03009a.99459.99459,0,0,0-.15308-.32447c-.00806-.01092-.01953-.01758-.02808-.02813a.80945.80945,0,0,0-.33593-.26246.96908.96908,0,0,0-.13379-.06787l-27.99994-9a.99952.99952,0,0,0-.612,0l-28,9a1703.32858,1703.32858,0,0,1-.23932.12152.98833.98833,0,0,0-.23083.20917c-.0083.01038-.01978.017-.02765.02765a.991.991,0,0,0-.15308.32459c-.00311.011-.01141.01886-.01416.03009l-16,65a.94709.94709,0,0,0-.007.166.99661.99661,0,0,0-.0083.19745.95978.95978,0,0,0,.054.184.59987.59987,0,0,0,.18353.32691.96711.96711,0,0,0,.12744.14062.997.997,0,0,0,.17413.0968.94408.94408,0,0,0,.14417.08014L49.69678,94.95288a.99008.99008,0,0,0,.60638,0l43.99994-14A1.00209,1.00209,0,0,0,94.971,79.761ZM49.99988,7.05042,74.73193,15l-24.732,7.94965L25.26788,15ZM22.71472,16.28015,49,24.72894V92.63239L7.19458,79.33069ZM51,92.63239V24.72894l26.28516-8.44885L92.8053,79.33069Z"/><path d="M42.42022,68.70319l1.90585-.64042a1.06886,1.06886,0,0,0,.64972-1.3266A.99051.99051,0,0,0,43.71966,66.05l-1.90585.64043a1.06886,1.06886,0,0,0-.64972,1.32659A.99051.99051,0,0,0,42.42022,68.70319Zm-7.6234,2.5617,1.90585-.64042a1.06887,1.06887,0,0,0,.64972-1.3266.99051.99051,0,0,0-1.25613-.68617l-1.90585.64042a1.06888,1.06888,0,0,0-.64972,1.3266A.99052.99052,0,0,0,34.79682,71.26489Zm-7.6234,2.5617,1.90585-.64043a1.06885,1.06885,0,0,0,.64972-1.32659.99051.99051,0,0,0-1.25613-.68617l-1.90585.64043a1.06885,1.06885,0,0,0-.64972,1.32659A.99051.99051,0,0,0,27.17342,73.82659ZM19.55,76.3883l1.90586-.64043a1.06887,1.06887,0,0,0,.64972-1.3266.99051.99051,0,0,0-1.25613-.68616l-1.90585.64042a1.06887,1.06887,0,0,0-.64973,1.3266A.99052.99052,0,0,0,19.55,76.3883ZM11.92661,78.95l1.90585-.64043a1.06885,1.06885,0,0,0,.64972-1.32659.99051.99051,0,0,0-1.25613-.68617l-1.90585.64043a1.06885,1.06885,0,0,0-.64972,1.32659A.99051.99051,0,0,0,11.92661,78.95Z"/><path d="M58.18618,66.69043,56.28033,66.05a.99051.99051,0,0,0-1.25613.68617,1.06887,1.06887,0,0,0,.64972,1.3266l1.90585.64042A.99051.99051,0,0,0,58.8359,68.017,1.06885,1.06885,0,0,0,58.18618,66.69043Zm7.6234,2.56169-1.90585-.64042a.99052.99052,0,0,0-1.25613.68617,1.06887,1.06887,0,0,0,.64972,1.3266l1.90585.64042a.99051.99051,0,0,0,1.25613-.68617A1.06886,1.06886,0,0,0,65.80958,69.25212Zm7.6234,2.56171-1.90585-.64043a.99051.99051,0,0,0-1.25613.68617,1.06886,1.06886,0,0,0,.64972,1.32659l1.90585.64043a.99051.99051,0,0,0,1.25613-.68617A1.06886,1.06886,0,0,0,73.433,71.81383Zm7.6234,2.5617-1.90584-.64042a.9905.9905,0,0,0-1.25613.68616,1.06887,1.06887,0,0,0,.64972,1.3266L80.45,76.3883a.99051.99051,0,0,0,1.25613-.68617A1.06887,1.06887,0,0,0,81.05638,74.37553Zm7.62341,2.56171-1.90585-.64043a.99051.99051,0,0,0-1.25613.68617,1.06886,1.06886,0,0,0,.64972,1.32659l1.90585.64043a.99051.99051,0,0,0,1.25613-.68617A1.06886,1.06886,0,0,0,88.67979,76.93724Z"/></svg>