<?xml version="1.0" ?><!-- Uploaded to: SVG Repo, www.svgrepo.com, Generator: SVG Repo Mixer Tools -->
<svg fill="#000000" width="800px" height="800px" viewBox="0 0 100 100" data-name="Layer 1" id="Layer_1" xmlns="http://www.w3.org/2000/svg"><title/><path d="M51.01178,65.00494Q50.50631,64.99972,50,65q-.50684,0-1.01172.00494a1,1,0,1,0,.02057,1.99988Q49.5025,66.99978,50,67q.498,0,.99121.00482a1,1,0,0,0,.02057-1.99988Z"/><path d="M68.37372,66.72217q-1.05671-.21249-2.15131-.40076a1,1,0,1,0-.339,1.97107q1.06723.18346,2.09607.39044a1,1,0,0,0,.39423-1.96075Z"/><path d="M76.845,69.0274q-1.01184-.363-2.09039-.69744a1,1,0,1,0-.59247,1.91021q1.03821.322,2.00757.6698A1,1,0,1,0,76.845,69.0274Z"/><path d="M59.72583,65.45807q-1.07574-.10346-2.175-.18439a1,1,0,1,0-.1466,1.99463q1.07656.07909,2.13006.1806a1,1,0,0,0,.19153-1.99084Z"/><path d="M25.24115,68.33124q-1.07785.33444-2.09027.69769a1,1,0,1,0,.67547,1.88245q.96855-.34754,2.00745-.67a1,1,0,1,0-.59265-1.91015Z"/><path d="M33.773,66.3222q-1.09423.18815-2.15125.40082a1,1,0,0,0,.39435,1.96076q1.02833-.20682,2.096-.39057a1,1,0,0,0-.33905-1.971Z"/><path d="M42.44415,65.27411q-1.0989.08075-2.17486.18451a1,1,0,1,0,.19165,1.99078q1.053-.10144,2.12994-.18072a1,1,0,1,0-.14673-1.99457Z"/><path d="M57.72369,43.5119l-.00006-.00006q1.13928.14731,2.22138.33582a1.00155,1.00155,0,0,0,1.15466-.82849,1.01328,1.01328,0,0,0-.81665-1.17145q-1.12464-.19555-2.30646-.3487a1.01445,1.01445,0,0,0-.25287,2.01288Z"/><path d="M66.42224,45.51941c.7298.26617,1.40888.54889,2.03119.84479A.99388.99388,0,0,0,69.7832,45.876a1.02091,1.02091,0,0,0-.48114-1.34919q-1.02768-.48852-2.20312-.9168a.99618.99618,0,0,0-1.27936.61145A1.01856,1.01856,0,0,0,66.42224,45.51941Z"/><path d="M40.04785,43.84906q1.08087-.18823,2.22125-.33612a1.01444,1.01444,0,0,0-.25317-2.01282q-1.18066.15289-2.30634.34906a1.01321,1.01321,0,0,0-.81646,1.17151A1.00155,1.00155,0,0,0,40.04785,43.84906Z"/><path d="M31.54041,46.36707h-.00007c.62214-.29609,1.30109-.579,2.03077-.84534a1.01862,1.01862,0,0,0,.60241-1.2981.99626.99626,0,0,0-1.27954-.61114q-1.17324.42828-2.20288.91748a1.02087,1.02087,0,0,0-.48071,1.34936A.9939.9939,0,0,0,31.54041,46.36707Z"/><path d="M49.01349,42.99988q.49218-.00723.98651-.00769.49456,0,.98651.00769a.99612.99612,0,1,0,.02942-1.992Q50.51175,41.00046,50,41q-.512,0-1.01587.00787a.99612.99612,0,1,0,.02936,1.992Z"/><path d="M88.88721,79.56006,75.10352,50.50012,88.26758,22.99274c.00714-.015.00177-.02173.00274-.03272A6.65948,6.65948,0,0,0,89,20a6.76767,6.76767,0,0,0-.89783-3.30707,13.86315,13.86315,0,0,0-5.08508-4.80755A45.70934,45.70934,0,0,0,69.122,6.87653,93.44812,93.44812,0,0,0,50,5c-10.59473.00214-20.18677,1.5752-27.21576,4.16217a27.39812,27.39812,0,0,0-8.45483,4.63434,10.98125,10.98125,0,0,0-2.43158,2.89642A6.76627,6.76627,0,0,0,11,20a6.67834,6.67834,0,0,0,.75916,3.021l-.01648-.00769L24.89642,50.50006,11.11273,79.56012a2.07026,2.07026,0,0,0-.11065.42993l-.002.01a6.76615,6.76615,0,0,0,.89777,3.307,13.86267,13.86267,0,0,0,5.08508,4.80755A45.70615,45.70615,0,0,0,30.878,93.12341,93.44792,93.44792,0,0,0,50,95c10.59473-.0022,20.18677-1.5752,27.21576-4.16217a27.39815,27.39815,0,0,0,8.45483-4.6344A10.98144,10.98144,0,0,0,88.10217,83.307,6.76762,6.76762,0,0,0,89,80l-.002-.01013A2.07177,2.07177,0,0,0,88.88721,79.56006Zm-75.241-57.22418a4.54483,4.54483,0,0,1,0-4.67182,11.95457,11.95457,0,0,1,4.3736-4.06848A43.81427,43.81427,0,0,1,31.29248,8.83313,91.465,91.465,0,0,1,50,7c10.39209-.0022,19.80005,1.55884,26.52435,4.03888a25.4975,25.4975,0,0,1,7.83258,4.26575,9.00751,9.00751,0,0,1,1.99683,2.35943,4.54483,4.54483,0,0,1,0,4.67182,11.95357,11.95357,0,0,1-4.3736,4.06848,43.81418,43.81418,0,0,1-13.27264,4.76251A91.46927,91.46927,0,0,1,50,33c-10.39209.00214-19.8-1.55884-26.52435-4.03888a25.49677,25.49677,0,0,1-7.83258-4.26581A9.00655,9.00655,0,0,1,13.64624,22.33588Zm2.62408,5.32476c.2323.153.4676.305.71259.45392A45.70615,45.70615,0,0,0,30.878,33.12341,93.44792,93.44792,0,0,0,50,35c10.59473-.0022,20.18677-1.5752,27.21576-4.16217a32.03662,32.03662,0,0,0,6.51575-3.18109S73.00732,50.34467,73.00439,50.47955L73,50.49341a8.87765,8.87765,0,0,1-2.993,3.23645,27.32294,27.32294,0,0,1-8.268,2.96258A57.40342,57.40342,0,0,1,50,57.84229,50.00585,50.00585,0,0,1,33.37512,55.314a15.755,15.755,0,0,1-4.83227-2.62635A5.86472,5.86472,0,0,1,27,50.46869C27,50.457,16.27032,27.66064,16.27032,27.66064ZM86.35376,82.33588a11.95357,11.95357,0,0,1-4.3736,4.06848,43.81418,43.81418,0,0,1-13.27264,4.76251A91.46927,91.46927,0,0,1,50,93c-10.39209.00214-19.8-1.55884-26.52435-4.03888a25.49677,25.49677,0,0,1-7.83258-4.26581,9.00655,9.00655,0,0,1-1.99683-2.35943,4.81811,4.81811,0,0,1-.63214-2.13117l2.166-4.56647,1.59784-1.22607a11.87753,11.87753,0,0,1,1.34674-.87952,1,1,0,0,0-1.02758-1.71582c-.05158.03089-.09821.06342-.14924.09449l9.04944-19.07886a9.85415,9.85415,0,0,0,2.9588,2.6076,29.22,29.22,0,0,0,8.89051,3.209A59.38323,59.38323,0,0,0,50,59.84229a51.92482,51.92482,0,0,0,17.31628-2.65156,17.65727,17.65727,0,0,0,5.45453-2.99493,7.93314,7.93314,0,0,0,1.24066-1.345l9.04065,19.0603c-.05224-.03186-.1-.06512-.15289-.09674A1,1,0,0,0,81.872,73.53046c.5777.34576,2.24481,1.51178,2.89069,1.98712l2.2232,4.68713A4.81811,4.81811,0,0,1,86.35376,82.33588Z"/></svg>