<?xml version="1.0" ?><!-- Uploaded to: SVG Repo, www.svgrepo.com, Generator: SVG Repo Mixer Tools -->
<svg fill="#000000" width="800px" height="800px" viewBox="0 0 100 100" data-name="Layer 1" id="Layer_1" xmlns="http://www.w3.org/2000/svg"><title/><path d="M29,70h0a1,1,0,1,0,1-1A1,1,0,0,0,29,70Zm0-8v2a1,1,0,0,0,2,0V62a1,1,0,0,0-2,0Zm0-8v2a1,1,0,0,0,2,0V54a1,1,0,0,0-2,0Zm0-8v2a1,1,0,0,0,2,0V46a1,1,0,0,0-2,0Zm0-8v2a1,1,0,0,0,2,0V38a1,1,0,0,0-2,0Zm0-8v2a1,1,0,0,0,2,0V30a1,1,0,0,0-2,0Zm0-8v2a1,1,0,0,0,2,0V22a1,1,0,0,0-2,0Zm0-8v2a1,1,0,0,0,2,0V14a1,1,0,0,0-2,0Z"/><path d="M62,69H60a1,1,0,0,0,0,2h2a1,1,0,0,0,0-2Z"/><path d="M54,69H52a1,1,0,0,0,0,2h2a1,1,0,0,0,0-2Z"/><path d="M38,69H36a1,1,0,0,0,0,2h2a1,1,0,0,0,0-2Z"/><path d="M46,69H44a1,1,0,0,0,0,2h2a1,1,0,0,0,0-2Z"/><path d="M70,69H68a1,1,0,0,0,0,2h2a1,1,0,0,0,0-2Z"/><path d="M86,69H84a1,1,0,0,0,0,2h2a1,1,0,0,0,0-2Z"/><path d="M78,69H76a1,1,0,0,0,0,2h2a1,1,0,0,0,0-2Z"/><path d="M12.32227,86.26344,10.908,87.67766a1,1,0,0,0,1.41425,1.4142l1.41424-1.41422a1,1,0,0,0-1.41424-1.4142Zm5.65686-5.65684-1.41425,1.4142a1,1,0,1,0,1.41425,1.4142l1.41424-1.4142a1,1,0,0,0-1.41424-1.4142ZM23.636,74.94974,22.22174,76.364a1,1,0,0,0,1.41425,1.4142l1.41424-1.41421a1,1,0,0,0-1.41424-1.4142Zm5.65686-5.65685-1.41425,1.4142a1,1,0,0,0,1.41425,1.4142l1.41424-1.4142a1,1,0,0,0-1.41424-1.4142Z"/><path d="M94.707,69.29291l-63.99994-64a1,1,0,0,0-1.41424,0l-24,24c-.01551.0155-.02057.03625-.03485.05249a.983.983,0,0,0-.149.22449.96329.96329,0,0,0-.04279.09008A.9868.9868,0,0,0,5,30V94a1,1,0,0,0,1,1H70a.98652.98652,0,0,0,.34-.06622.94912.94912,0,0,0,.09008-.04279.98462.98462,0,0,0,.22449-.14905c.01624-.01428.037-.01934.05249-.03485l24-24A1,1,0,0,0,94.707,69.29291ZM70,92.58582,7.41418,30,30,7.41418,92.58569,70ZM7,32.41425,67.58575,93H7Z"/></svg>