<?xml version="1.0" ?><!-- Uploaded to: SVG Repo, www.svgrepo.com, Generator: SVG Repo Mixer Tools -->
<svg fill="#000000" width="800px" height="800px" viewBox="0 0 100 100" data-name="Layer 1" id="Layer_1" xmlns="http://www.w3.org/2000/svg"><title/><path d="M34.65,50.8595a1,1,0,0,0-1.25213.65741l-.59473,1.90948a1,1,0,1,0,1.90949.59479l.59472-1.90955A1,1,0,0,0,34.65,50.8595Z"/><path d="M41.78693,27.94525a1,1,0,0,0-1.25214.65735l-.59473,1.90955a1,1,0,1,0,1.90949.59472l.59472-1.90948A.99994.99994,0,0,0,41.78693,27.94525Z"/><path d="M44.16589,20.30713a1,1,0,0,0-1.25213.65741L42.319,22.874a1,1,0,1,0,1.90949.59479l.59472-1.90954A1,1,0,0,0,44.16589,20.30713Z"/><path d="M37.029,43.22144a.99993.99993,0,0,0-1.25213.65734l-.59473,1.90955a1,1,0,1,0,1.90948.59473l.59473-1.90949A.99994.99994,0,0,0,37.029,43.22144Z"/><path d="M39.408,35.58331a1,1,0,0,0-1.25214.65741l-.59472,1.90949a1,1,0,0,0,1.90948.59479l.59473-1.90955A1,1,0,0,0,39.408,35.58331Z"/><path d="M31.08154,62.31665a.99993.99993,0,0,0,1.25214-.65741l.59473-1.90948a1,1,0,0,0-1.90949-.59479l-.59473,1.90954A1,1,0,0,0,31.08154,62.31665Z"/><path d="M59.97321,36.8222l.59246,1.91022A1,1,0,1,0,62.47589,38.14l-.59247-1.91021a1,1,0,1,0-1.91021.59246Z"/><path d="M57.60339,29.18121l.59247,1.91028a1,1,0,1,0,1.91022-.59247l-.59247-1.91021a1,1,0,1,0-1.91022.5924Z"/><path d="M55.23364,21.54028l.59241,1.91022a1,1,0,1,0,1.91022-.59241l-.59241-1.91021a1,1,0,1,0-1.91022.5924Z"/><path d="M62.343,44.46313l.5924,1.91022a1,1,0,1,0,1.91022-.59241l-.59241-1.91027a1,1,0,1,0-1.91021.59246Z"/><path d="M64.71277,52.10406l.59247,1.91022a1,1,0,1,0,1.91021-.5924L66.623,51.51166a1,1,0,1,0-1.91022.5924Z"/><path d="M67.08258,59.745l.59247,1.91027a1,1,0,0,0,1.91022-.59246l-.59247-1.91022a1,1,0,1,0-1.91022.59241Z"/><path d="M25.78,67.43353l-1.61774.93341a1,1,0,0,0,.99945,1.73236l1.61774-.93341A1,1,0,0,0,25.78,67.43353Z"/><path d="M12.83771,74.90063,11.22,75.834a1,1,0,1,0,.99945,1.73237l1.61774-.93335a1,1,0,1,0-.99945-1.73237Z"/><path d="M19.30884,71.16711l-1.61774.93335a1,1,0,0,0,.99945,1.73236l1.61774-.93341a1,1,0,1,0-.99945-1.7323Z"/><path d="M86.16266,76.633l1.61786.93335A1,1,0,0,0,88.78,75.834l-1.61786-.93335a1,1,0,1,0-.99945,1.73237Z"/><path d="M73.21991,69.16608l1.6178.93335a1,1,0,0,0,.99945-1.73236l-1.6178-.93335a1,1,0,1,0-.99945,1.73236Z"/><path d="M79.69128,72.89954l1.6178.93335a1,1,0,0,0,.99945-1.73237l-1.6178-.93334a1,1,0,0,0-.99945,1.73236Z"/><path d="M46.99994,65h-2a1,1,0,0,0,0,2h2a1,1,0,1,0,0-2Z"/><path d="M54.99994,65h-2a1,1,0,0,0,0,2h2a1,1,0,1,0,0-2Z"/><path d="M32,65H30a1,1,0,0,0,0,2h2a1,1,0,0,0,0-2Z"/><path d="M68,65a1,1,0,0,0,0,2h2a1,1,0,0,0,0-2H68Z"/><path d="M94.86,79.49l-44-74a.99969.99969,0,0,0-1.72,0l-44,74a.96632.96632,0,0,0-.11.76.99759.99759,0,0,0,.47.61l24,14a.848.848,0,0,0,.26.11c.01,0,.01,0,.02.01.00995,0,.03-.01.04,0A1.1006,1.1006,0,0,0,30,95H70a1.1006,1.1006,0,0,0,.18-.02c.01-.01.03,0,.04,0,.01-.01.01-.01.02-.01a.848.848,0,0,0,.26-.11l24-14a.99759.99759,0,0,0,.47-.61A.96632.96632,0,0,0,94.86,79.49ZM29.33,92.45,7.37,79.64,47.62,11.96Zm1.92.55,5.90979-26h1.84015a1,1,0,1,0,0-2H37.61438L50,10.51,62.38562,65H60.99994a1,1,0,0,0,0,2h1.84027L68.75,93Zm39.42-.55L52.38,11.96,92.63,79.64Z"/></svg>