<?xml version="1.0" ?><!-- Uploaded to: SVG Repo, www.svgrepo.com, Generator: SVG Repo Mixer Tools -->
<svg fill="#000000" width="800px" height="800px" viewBox="0 0 100 100" data-name="Layer 1" id="Layer_1" xmlns="http://www.w3.org/2000/svg"><title/><path d="M10.51782,78.08765l1.76093-.94818a1,1,0,0,0-.94818-1.761l-1.76093.94824a1,1,0,0,0,.94818,1.76093Z"/><path d="M17.56158,74.29486l1.76093-.94818a1,1,0,0,0-.94818-1.761l-1.76093.94825a1,1,0,0,0,.94818,1.76092Z"/><path d="M24.60535,70.50208l1.76092-.94825a1,1,0,1,0-.94818-1.76092l-1.76092.94818a1,1,0,0,0,.94818,1.761Z"/><path d="M87.72113,77.13947l1.76093.94818a1,1,0,0,0,.94818-1.76093l-1.76093-.94824a1,1,0,0,0-.94818,1.761Z"/><path d="M73.63361,69.55383l1.76092.94825a1,1,0,0,0,.94818-1.761l-1.76092-.94818a1,1,0,1,0-.94818,1.76092Z"/><path d="M80.67737,73.34668l1.76092.94818a1,1,0,1,0,.94818-1.76092l-1.76092-.94825a1,1,0,0,0-.94818,1.761Z"/><path d="M34,67h1a1,1,0,0,0,0-2H34a1,1,0,0,0,0,2Z"/><path d="M41,67h1.99994a1,1,0,1,0,0-2H41a1,1,0,0,0,0,2Z"/><path d="M48.99994,67h2a1,1,0,1,0,0-2h-2a1,1,0,0,0,0,2Z"/><path d="M56.99994,67h2a1,1,0,1,0,0-2h-2a1,1,0,0,0,0,2Z"/><path d="M65,67h1a1,1,0,0,0,0-2H65a1,1,0,0,0,0,2Z"/><path d="M30,25a1,1,0,0,0-1,1v2a1,1,0,0,0,2,0V26A1,1,0,0,0,30,25Z"/><path d="M30,9a1,1,0,0,0-1,1v2a1,1,0,0,0,2,0V10A1,1,0,0,0,30,9Z"/><path d="M30,17a1,1,0,0,0-1,1v2a1,1,0,0,0,2,0V18A1,1,0,0,0,30,17Z"/><path d="M70,9a1,1,0,0,0-1,1v2a1,1,0,0,0,2,0V10A1,1,0,0,0,70,9Z"/><path d="M70,17a1,1,0,0,0-1,1v2a1,1,0,0,0,2,0V18A1,1,0,0,0,70,17Z"/><path d="M70,25a1,1,0,0,0-1,1v2a1,1,0,0,0,2,0V26A1,1,0,0,0,70,25Z"/><path d="M94.51971,19.1665C94.49866,19.14276,70.5,5.14,70.5,5.14A.99332.99332,0,0,0,70,5H30a.99332.99332,0,0,0-.5.14S5.519,19.1369,5.50671,19.14868A.98624.98624,0,0,0,5,20V80a.98742.98742,0,0,0,.5.86L29.42,94.81a.35261.35261,0,0,0,.08.05,1.22257,1.22257,0,0,0,.24.1A.82323.82323,0,0,0,30,95H70a.82323.82323,0,0,0,.26-.04,1.22257,1.22257,0,0,0,.24-.1.35261.35261,0,0,0,.08-.05L94.5,80.86A.98742.98742,0,0,0,95,80V20A.984.984,0,0,0,94.51971,19.1665ZM29,92.26,7,79.43V21.74L29,34.57ZM69,93H31V35H69Zm.73-60H30.27L7.98,20,30.27,7H69.73L92.02,20ZM93,79.43,71,92.26V34.57L93,21.74Z"/></svg>