<?xml version="1.0" ?><!-- Uploaded to: SVG Repo, www.svgrepo.com, Generator: SVG Repo Mixer Tools -->
<svg fill="#000000" width="800px" height="800px" viewBox="0 0 100 100" data-name="Layer 1" id="Layer_1" xmlns="http://www.w3.org/2000/svg"><title/><path d="M94.86,79.49l-44-74a.99969.99969,0,0,0-1.72,0l-44,74a1.01977,1.01977,0,0,0-.07.87.97488.97488,0,0,0,.63.59L49.61,94.92a.99045.99045,0,0,0,.78,0L94.3,80.95a.97488.97488,0,0,0,.63-.59A1.01977,1.01977,0,0,0,94.86,79.49ZM49,92.63,7.5,79.43,49,9.64Zm2,0V9.64L92.5,79.43Z"/><path d="M42.42022,68.70319l1.90585-.64042a1.06886,1.06886,0,0,0,.64972-1.3266A.99051.99051,0,0,0,43.71966,66.05l-1.90585.64043a1.06886,1.06886,0,0,0-.64972,1.32659A.99051.99051,0,0,0,42.42022,68.70319Zm-7.6234,2.5617,1.90585-.64042a1.06887,1.06887,0,0,0,.64972-1.3266.99051.99051,0,0,0-1.25613-.68617l-1.90585.64042a1.06888,1.06888,0,0,0-.64972,1.3266A.99052.99052,0,0,0,34.79682,71.26489Zm-7.6234,2.5617,1.90585-.64043a1.06885,1.06885,0,0,0,.64972-1.32659.99051.99051,0,0,0-1.25613-.68617l-1.90585.64043a1.06885,1.06885,0,0,0-.64972,1.32659A.99051.99051,0,0,0,27.17342,73.82659ZM19.55,76.3883l1.90586-.64043a1.06887,1.06887,0,0,0,.64972-1.3266.99051.99051,0,0,0-1.25613-.68616l-1.90585.64042a1.06887,1.06887,0,0,0-.64973,1.3266A.99052.99052,0,0,0,19.55,76.3883ZM11.92661,78.95l1.90585-.64043a1.06885,1.06885,0,0,0,.64972-1.32659.99051.99051,0,0,0-1.25613-.68617l-1.90585.64043a1.06885,1.06885,0,0,0-.64972,1.32659A.99051.99051,0,0,0,11.92661,78.95Z"/><path d="M58.18618,66.69043,56.28033,66.05a.99051.99051,0,0,0-1.25613.68617,1.06887,1.06887,0,0,0,.64972,1.3266l1.90585.64042A.99051.99051,0,0,0,58.8359,68.017,1.06885,1.06885,0,0,0,58.18618,66.69043Zm7.6234,2.56169-1.90585-.64042a.99052.99052,0,0,0-1.25613.68617,1.06887,1.06887,0,0,0,.64972,1.3266l1.90585.64042a.99051.99051,0,0,0,1.25613-.68617A1.06886,1.06886,0,0,0,65.80958,69.25212Zm7.6234,2.56171-1.90585-.64043a.99051.99051,0,0,0-1.25613.68617,1.06886,1.06886,0,0,0,.64972,1.32659l1.90585.64043a.99051.99051,0,0,0,1.25613-.68617A1.06886,1.06886,0,0,0,73.433,71.81383Zm7.6234,2.5617-1.90584-.64042a.9905.9905,0,0,0-1.25613.68616,1.06887,1.06887,0,0,0,.64972,1.3266L80.45,76.3883a.99051.99051,0,0,0,1.25613-.68617A1.06887,1.06887,0,0,0,81.05638,74.37553Zm7.62341,2.56171-1.90585-.64043a.99051.99051,0,0,0-1.25613.68617,1.06886,1.06886,0,0,0,.64972,1.32659l1.90585.64043a.99051.99051,0,0,0,1.25613-.68617A1.06886,1.06886,0,0,0,88.67979,76.93724Z"/></svg>