<?xml version="1.0" ?><!-- Uploaded to: SVG Repo, www.svgrepo.com, Generator: SVG Repo Mixer Tools -->
<svg fill="#000000" width="800px" height="800px" viewBox="0 0 100 100" data-name="Layer 1" id="Layer_1" xmlns="http://www.w3.org/2000/svg"><title/><path d="M94.98254,15.91431a.97107.97107,0,0,0-.0238-.15686,1.01454,1.01454,0,0,0-.16821-.34961c-.01563-.02094-.02051-.04633-.038-.06629-.00769-.00873-.01867-.01184-.02649-.02026a.98715.98715,0,0,0-.08545-.07312.95865.95865,0,0,0-.13549-.09583,1.00605,1.00605,0,0,0-.094-.0589.9841.9841,0,0,0-.10864-.03228c-.02881-.00934-.05078-.02948-.08081-.03632l-44.00012-10a.98454.98454,0,0,0-.44324,0l-44,10c-.03.00684-.052.027-.08081.03632a.99725.99725,0,0,0-.10864.03228,1.00443,1.00443,0,0,0-.09424.059.96162.96162,0,0,0-.13525.0957.97371.97371,0,0,0-.08545.073c-.00794.00842-.01893.01159-.02662.02038-.01757.02-.02246.04541-.03808.06641a1.44125,1.44125,0,0,0-.13855.24237,1.15684,1.15684,0,0,0-.05335.2644c-.00268.02954-.01721.05506-.01721.08527L5,84a1.00111,1.00111,0,0,0,.47.848l16,10a.97594.97594,0,0,0,.093.04126.93961.93961,0,0,0,.09338.04138A1.00155,1.00155,0,0,0,22,95H78a1.00206,1.00206,0,0,0,.34351-.0694.94091.94091,0,0,0,.0935-.0415.99087.99087,0,0,0,.0929-.04114l16-10a1.00139,1.00139,0,0,0,.47-.848V16C94.99988,15.9696,94.98523,15.944,94.98254,15.91431ZM49,7.25275V8a1,1,0,0,0,2,0V7.25287L91.86414,16.54,77.62415,29H22.37561L8.13574,16.54ZM6.99988,83.44574V18.20361L21,30.4538V78.17773l-1.53918.48975a1,1,0,1,0,.60632,1.90582L21,80.27649V92.19586ZM77,93H23V31H49v1a1,1,0,0,0,2,0V31H77Zm16-9.55426-14,8.75V80.27661l.93262.29669a1,1,0,1,0,.60632-1.90582L79,78.1778V30.45367l14-12.25Z"/><path d="M28.61169,75.75586l-1.8302.58234a1,1,0,1,0,.60633,1.90582l1.8302-.58228a1,1,0,1,0-.60633-1.90588Z"/><path d="M43.25317,71.09729l-1.8302.58234a1,1,0,1,0,.60633,1.90582l1.8302-.58228a1,1,0,1,0-.60633-1.90588Z"/><path d="M35.9325,73.42657l-1.83021.58234a1,1,0,1,0,.60633,1.90582l1.8302-.58227a1,1,0,1,0-.60632-1.90589Z"/><path d="M13.97021,80.41443l-1.83007.58234a1,1,0,0,0,.60632,1.90588l1.83008-.58234a1,1,0,1,0-.60633-1.90588Z"/><path d="M63.46094,75.33246l1.8302.58227a1,1,0,1,0,.60632-1.90582l-1.8302-.58234a1,1,0,1,0-.60632,1.90589Z"/><path d="M70.78174,77.66174l1.8302.58228a1,1,0,1,0,.60632-1.90582l-1.8302-.58234a1,1,0,1,0-.60632,1.90588Z"/><path d="M56.14026,73.00317l1.8302.58228a1,1,0,1,0,.60632-1.90582l-1.8302-.58234a1,1,0,1,0-.60632,1.90588Z"/><path d="M85.42322,82.32031l1.8302.58234a1,1,0,0,0,.60632-1.90588l-1.8302-.58234a1,1,0,1,0-.60632,1.90588Z"/><path d="M50,17a1,1,0,0,0,1-1V14a1,1,0,0,0-2,0v2A1,1,0,0,0,50,17Z"/><path d="M50,25a1,1,0,0,0,1-1V22a1,1,0,0,0-2,0v2A1,1,0,0,0,50,25Z"/><path d="M50,37a.99993.99993,0,0,0-1,1v2a1,1,0,0,0,2,0V38A1,1,0,0,0,50,37Z"/><path d="M50,45a.99993.99993,0,0,0-1,1v2a1,1,0,0,0,2,0V46A1,1,0,0,0,50,45Z"/><path d="M50,61a.99993.99993,0,0,0-1,1v2a1,1,0,0,0,2,0V62A1,1,0,0,0,50,61Z"/><path d="M50,53a.99993.99993,0,0,0-1,1v2a1,1,0,0,0,2,0V54A1,1,0,0,0,50,53Z"/><circle cx="50" cy="70" r="1"/></svg>