<?xml version="1.0" ?><!-- Uploaded to: SVG Repo, www.svgrepo.com, Generator: SVG Repo Mixer Tools -->
<svg fill="#000000" width="800px" height="800px" viewBox="0 0 100 100" data-name="Layer 1" id="Layer_1" xmlns="http://www.w3.org/2000/svg"><title/><path d="M84.43457,34.39548q.99591.26913,1.85889.55182a1.0076,1.0076,0,0,0,1.26745-.608.96268.96268,0,0,0-.62719-1.22861q-.91929-.30114-1.962-.58263a1.00432,1.00432,0,0,0-1.23187.6734.966.966,0,0,0,.69476,1.194Zm-7.70795-1.55454q1.00287.15933,1.95.33a1,1,0,0,0,.35461-1.96832q-.96809-.17439-1.99084-.33687a1,1,0,0,0-.31373,1.97522Zm-7.86926-.98659q1.00351.09684,1.97479.20348a1,1,0,0,0,.21827-1.988q-.98437-.10808-2.001-.20619a1,1,0,1,0-.192,1.99075Zm-7.92663-.57942q1.00267.0516,1.98486.11235a1,1,0,0,0,.12329-1.99618q-.99225-.06137-2.00537-.11353a1,1,0,1,0-.10278,1.99738Zm-7.95063-.31047q1.00113.0132,1.98883.0351a.98244.98244,0,1,0,.04517-1.964q-.99674-.0221-2.00714-.03543a.98243.98243,0,1,0-.02686,1.96437Zm-7.95624.03527q.98741-.02191,1.98871-.03518a.98243.98243,0,1,0-.027-1.96437q-1.01011.01335-2.0069.03549a.98245.98245,0,1,0,.04516,1.96407Zm-7.946.388q.98181-.06075,1.98468-.11241a1,1,0,0,0-.10278-1.99735q-1.01295.05214-2.00534.11358a1,1,0,1,0,.12344,1.99618Zm-7.916.67084q.97091-.10663,1.97461-.20355a1,1,0,0,0-.19214-1.99073q-1.01619.09805-2.0008.20623a1,1,0,0,0,.21833,1.988ZM21.318,33.17191q.94648-.17056,1.9498-.33a1,1,0,1,0-.3139-1.97522q-1.02219.16244-1.99057.33694a1,1,0,1,0,.35467,1.9683Zm-7.61593,1.77675q.86113-.28219,1.85867-.55194a.966.966,0,0,0,.69458-1.19409,1.00429,1.00429,0,0,0-1.23187-.67329q-1.04182.28162-1.96192.58281a.96266.96266,0,0,0-.627,1.22872,1.00767,1.00767,0,0,0,1.26761.60781Z"/><path d="M7.01093,38.08228c.00256.03045.00647.059.01171.0888a2.762,2.762,0,0,0,.31177,1.11737A5.23515,5.23515,0,0,0,9.19855,41.127a22.85222,22.85222,0,0,0,6.06866,2.40992C23.01038,45.64691,35.66,46.99689,50,47a167.99072,167.99072,0,0,0,29.8855-2.36078A43.26091,43.26091,0,0,0,89.11,42.02582a10.08154,10.08154,0,0,0,2.718-1.68152,4.09052,4.09052,0,0,0,.83753-1.05585,2.76124,2.76124,0,0,0,.31176-1.11725c.00531-.0299.00922-.05847.01178-.08892C92.99,38.05438,93,38.028,92.99994,38a1.09721,1.09721,0,0,1-.03711-.27014,44.5625,44.5625,0,0,0-85.92566,0A1.09721,1.09721,0,0,1,7.00006,38C7,38.028,7.01007,38.05438,7.01093,38.08228ZM50,7A42.71252,42.71252,0,0,1,90.98621,38.10181a.79326.79326,0,0,1-.08551.24566,3.36773,3.36773,0,0,1-1.1778,1.09522A21.0884,21.0884,0,0,1,84.206,41.60748C76.76917,43.64178,64.20172,45.00305,50,45a166.10354,166.10354,0,0,1-29.51129-2.32544,41.47221,41.47221,0,0,1-8.77753-2.47235,8.21228,8.21228,0,0,1-2.17651-1.32184,2.12121,2.12121,0,0,1-.43543-.5329.79607.79607,0,0,1-.08545-.24566A42.71246,42.71246,0,0,1,50,7Z"/><path d="M92.99982,62.00085,93,62c.00006-.0282-.01-.05481-.01093-.08289-.0025-.03-.0064-.05816-.01159-.08764a2.76229,2.76229,0,0,0-.31195-1.11792A5.23472,5.23472,0,0,0,90.80139,58.873a22.8495,22.8495,0,0,0-6.06866-2.40986C76.98962,54.35309,64.3399,53.00305,50,53a167.99727,167.99727,0,0,0-29.88556,2.36072A43.26426,43.26426,0,0,0,10.89,57.97412a10.08254,10.08254,0,0,0-2.718,1.68158,4.08834,4.08834,0,0,0-.83753,1.05585,2.761,2.761,0,0,0-.31189,1.11792c-.00519.02948-.00909.05761-.01159.08764C7.01,61.94519,6.99994,61.9718,7,62l.00018.00085a2.72644,2.72644,0,0,0,.33423,1.2876c.00592.01087.01441.0202.02039.031a44.54264,44.54264,0,0,0,85.29065-.0008c.0058-.01062.0144-.01953.02008-.03021A2.72719,2.72719,0,0,0,92.99982,62.00085ZM10.277,60.55731A21.08627,21.08627,0,0,1,15.794,58.39252C23.23077,56.35822,35.79822,54.99689,50,55a166.1109,166.1109,0,0,1,29.51129,2.32538,41.47257,41.47257,0,0,1,8.77747,2.47235,8.21186,8.21186,0,0,1,2.17657,1.3219,2.123,2.123,0,0,1,.43537.53284.79434.79434,0,0,1,.08551.24578c-.05646.19806-.11951.39319-.17865.59009a3.7869,3.7869,0,0,1-1.08466.95435A21.0884,21.0884,0,0,1,84.206,65.60748C76.76917,67.64178,64.20172,69.00305,50,69a166.10354,166.10354,0,0,1-29.51129-2.32544,41.47221,41.47221,0,0,1-8.77753-2.47235,8.21228,8.21228,0,0,1-2.17651-1.32184,2.2945,2.2945,0,0,1-.34339-.396c-.05883-.19556-.12139-.38947-.17749-.58625a.79451.79451,0,0,1,.08545-.24566A3.36829,3.36829,0,0,1,10.277,60.55731ZM50,93A42.65894,42.65894,0,0,1,10.31769,65.75037a27.64488,27.64488,0,0,0,4.94952,1.7865C23.01038,69.64691,35.66,70.99689,50,71a167.99072,167.99072,0,0,0,29.8855-2.36078A43.26091,43.26091,0,0,0,89.11,66.02582c.20062-.0907.386-.184.57287-.277A42.6588,42.6588,0,0,1,50,93Z"/></svg>