<?xml version="1.0" ?><!-- Uploaded to: SVG Repo, www.svgrepo.com, Generator: SVG Repo Mixer Tools -->
<svg fill="#000000" width="800px" height="800px" viewBox="0 0 100 100" data-name="Layer 1" id="Layer_1" xmlns="http://www.w3.org/2000/svg"><title/><path d="M94.89441,93.5528l-44-88a1,1,0,0,0-1.78888,0l-44,88A1,1,0,0,0,6,95H94a1,1,0,0,0,.89441-1.4472ZM49.99988,8.23615,92.3819,93H7.618Z"/><path d="M44.87438,69.97114l1.66776-1.09347a1.03685,1.03685,0,0,0,.3032-1.4059.9713.9713,0,0,0-1.36454-.31243L43.813,68.25281a1.03685,1.03685,0,0,0-.3032,1.4059A.97131.97131,0,0,0,44.87438,69.97114ZM38.20331,74.345l1.66775-1.09347a1.03685,1.03685,0,0,0,.30321-1.4059.97132.97132,0,0,0-1.36455-.31243L37.142,72.62671a1.03685,1.03685,0,0,0-.30321,1.4059A.97132.97132,0,0,0,38.20331,74.345Zm-6.671,4.3739,1.66775-1.09347a1.03685,1.03685,0,0,0,.30321-1.4059.97132.97132,0,0,0-1.36455-.31243L30.471,77.00061a1.03685,1.03685,0,0,0-.30321,1.4059A.97131.97131,0,0,0,31.5323,78.71894Zm-6.671,4.3739L26.529,81.99937a1.03685,1.03685,0,0,0,.30321-1.4059A.97133.97133,0,0,0,25.4677,80.281L23.8,81.37451a1.03685,1.03685,0,0,0-.30321,1.4059A.97131.97131,0,0,0,24.86129,83.09284Zm-6.67107,4.37392L19.858,86.37327a1.03685,1.03685,0,0,0,.30321-1.4059.97133.97133,0,0,0-1.36455-.31243l-1.66775,1.09349a1.03685,1.03685,0,0,0-.30321,1.4059A.97132.97132,0,0,0,18.19022,87.46676Zm-6.671,4.3739L13.187,90.74719a1.03685,1.03685,0,0,0,.3032-1.4059.97131.97131,0,0,0-1.36454-.31243l-1.66776,1.09347a1.03685,1.03685,0,0,0-.3032,1.4059A.9713.9713,0,0,0,11.5192,91.84066Z"/><path d="M56.187,68.25281,54.5192,67.15934a.9713.9713,0,0,0-1.36454.31243,1.03685,1.03685,0,0,0,.3032,1.4059l1.66776,1.09347a.97131.97131,0,0,0,1.36454-.31243A1.03685,1.03685,0,0,0,56.187,68.25281Zm6.67107,4.3739-1.66775-1.09347a.97132.97132,0,0,0-1.36455.31243,1.03685,1.03685,0,0,0,.30321,1.4059L61.79669,74.345a.97132.97132,0,0,0,1.36455-.31243A1.03685,1.03685,0,0,0,62.858,72.62671Zm6.671,4.3739-1.66775-1.09347a.97132.97132,0,0,0-1.36455.31243A1.03685,1.03685,0,0,0,66.8,77.62547l1.66775,1.09347a.97131.97131,0,0,0,1.36455-.31243A1.03685,1.03685,0,0,0,69.529,77.00061Zm6.671,4.3739L74.5323,80.281a.97133.97133,0,0,0-1.36455.31243,1.03685,1.03685,0,0,0,.30321,1.4059l1.66775,1.09347a.97131.97131,0,0,0,1.36455-.31243A1.03685,1.03685,0,0,0,76.20005,81.37451Zm6.67107,4.37392-1.66775-1.09349a.97133.97133,0,0,0-1.36455.31243,1.03685,1.03685,0,0,0,.30321,1.4059l1.66775,1.09349a.97132.97132,0,0,0,1.36455-.31243A1.03685,1.03685,0,0,0,82.87112,85.74843Zm6.671,4.3739-1.66776-1.09347a.97131.97131,0,0,0-1.36454.31243,1.03685,1.03685,0,0,0,.3032,1.4059l1.66776,1.09347a.9713.9713,0,0,0,1.36454-.31243A1.03685,1.03685,0,0,0,89.54214,90.12233Z"/><path d="M49,60v2a1,1,0,0,0,2,0V60a1,1,0,1,0-2,0Zm0-8v2a1,1,0,0,0,2,0V52a1,1,0,1,0-2,0Zm0-8v2a1,1,0,0,0,2,0V44a1,1,0,1,0-2,0Zm0-8v2a1,1,0,0,0,2,0V36a1,1,0,1,0-2,0Zm0-8v2a1,1,0,0,0,2,0V28a1,1,0,1,0-2,0Zm0-8v2a1,1,0,0,0,2,0V20a1,1,0,1,0-2,0Zm0-8v2a1,1,0,0,0,2,0V12a1,1,0,1,0-2,0Z"/><circle cx="50" cy="66" r="1"/></svg>