<?xml version="1.0" encoding="iso-8859-1"?>
<!-- Uploaded to: SVG Repo, www.svgrepo.com, Generator: SVG Repo Mixer Tools -->
<!DOCTYPE svg PUBLIC "-//W3C//DTD SVG 1.1//EN" "http://www.w3.org/Graphics/SVG/1.1/DTD/svg11.dtd">
<svg fill="#000000" version="1.1" id="Capa_1" xmlns="http://www.w3.org/2000/svg" xmlns:xlink="http://www.w3.org/1999/xlink" 
	 width="800px" height="800px" viewBox="0 0 95.312 95.312"
	 xml:space="preserve">
<g>
	<path d="M63.408,89.924V77.131c0-1.021-0.828-1.849-1.849-1.849H33.137v0.006h-1.333c-8.453,0-15.33-6.875-15.33-15.33
		c0-8.451,6.877-15.329,15.33-15.329l34.397-0.025L52.9,57.854c-0.688,0.686-0.688,1.901,0,2.588l8.267,8.266
		c0.343,0.344,0.81,0.537,1.294,0.537s0.951-0.193,1.294-0.537l31.021-31.022c0.717-0.715,0.717-1.873,0-2.589L63.755,4.076
		c-0.716-0.714-1.873-0.714-2.588,0L52.9,12.341c-0.344,0.343-0.537,0.809-0.537,1.294s0.193,0.951,0.537,1.295l13.301,13.202
		l-34.396,0.023C14.268,28.155,0,42.422,0,59.958c0,17.537,14.268,31.806,31.805,31.806l29.756,0.009
		C62.58,91.772,63.408,90.944,63.408,89.924z"/>
</g>
</svg>