<?xml version="1.0" encoding="iso-8859-1"?>
<!-- Uploaded to: SVG Repo, www.svgrepo.com, Generator: SVG Repo Mixer Tools -->
<!DOCTYPE svg PUBLIC "-//W3C//DTD SVG 1.1//EN" "http://www.w3.org/Graphics/SVG/1.1/DTD/svg11.dtd">
<svg fill="#000000" version="1.1" id="Capa_1" xmlns="http://www.w3.org/2000/svg" xmlns:xlink="http://www.w3.org/1999/xlink" 
	 width="800px" height="800px" viewBox="0 0 165.172 165.173"
	 xml:space="preserve">
<g>
	<path d="M164.521,76.923c1.205-1.872,0.696-4.377-1.177-5.598c-1.877-1.207-46.162-29.795-89.675-29.795
		c-44.188,0-69.581,29.325-70.644,30.562c-1.445,1.721-1.248,4.271,0.448,5.706c0.78,0.656,1.706,0.973,2.631,0.973
		c1.144,0,2.283-0.504,3.075-1.423c0.175-0.218,13.724-15.811,37.699-23.499c-6.875,4.32-11.195,11.634-11.195,19.639
		c0,2.481,0.416,4.924,1.104,6.864c2.996,12.994,18.373,28.579,30.348,34.514c-35.773-3.469-59.961-26.987-60.235-27.25
		c-1.56-1.554-4.102-1.598-5.71-0.022c-1.571,1.55-1.592,4.109-0.036,5.702c1.245,1.236,30.516,30.348,74.487,30.348
		c43.614,0,84.047-28.695,85.756-29.92c1.804-1.292,2.22-3.799,0.925-5.615c-1.32-1.838-3.832-2.216-5.621-0.93
		c-0.37,0.262-34.95,24.438-72.855,27.721c11.996-5.865,27.41-21.428,30.323-34.172c0.794-2.348,1.209-4.791,1.209-7.234
		c0-7.823-4.16-14.966-10.79-19.349c29.505,7.97,54.027,23.759,54.335,23.978C160.8,79.271,163.279,78.794,164.521,76.923z
		 M106.397,78.513c-3.152,13.683-24.353,30.815-30.881,30.815c-6.7,0-27.623-16.771-30.991-31.229
		c-0.514-1.508-0.769-3.053-0.769-4.629c0-5.603,3.168-10.769,8.281-13.489c2.486-1.3,5.149-1.953,7.909-1.953
		c4.852,0,9.43,2.049,12.516,5.663l3.053,3.549l3.062-3.549c4.874-5.663,13.657-7.261,20.389-3.731
		c5.146,2.741,8.317,7.908,8.317,13.51C107.284,75.052,107.026,76.608,106.397,78.513z M75.516,55.451
		c-3.385-2.762-7.545-4.371-11.887-5.01c3.278-0.394,6.508-0.829,10.041-0.829c4.321,0,8.673,0.449,13.01,1.029
		C82.623,51.347,78.724,52.838,75.516,55.451z M89.004,83.216c0,6.617-5.361,11.979-11.996,11.979
		c-6.621,0-11.984-5.361-11.984-11.979c0-6.628,5.363-11.992,11.984-11.992C83.643,71.224,89.004,76.587,89.004,83.216z"/>
</g>
</svg>