<?xml version="1.0" encoding="iso-8859-1"?>
<!-- Uploaded to: SVG Repo, www.svgrepo.com, Generator: SVG Repo Mixer Tools -->
<!DOCTYPE svg PUBLIC "-//W3C//DTD SVG 1.1//EN" "http://www.w3.org/Graphics/SVG/1.1/DTD/svg11.dtd">
<svg fill="#000000" version="1.1" id="Capa_1" xmlns="http://www.w3.org/2000/svg" xmlns:xlink="http://www.w3.org/1999/xlink" 
	 width="800px" height="800px" viewBox="0 0 31.533 31.533"
	 xml:space="preserve">
<g>
	<path d="M31.252,14.903c-0.278-0.385-6.938-9.433-15.486-9.433c-8.547,0-15.207,9.049-15.486,9.433
		c-0.374,0.515-0.374,1.212,0,1.725c0.279,0.388,6.939,9.435,15.486,9.435c8.548,0,15.208-9.048,15.486-9.435
		C31.626,16.115,31.626,15.417,31.252,14.903z M13.311,13.846c-0.531,0.75-0.655,1.727-0.368,2.907
		c0.192,0.789-0.291,1.582-1.08,1.773c-0.116,0.029-0.234,0.039-0.348,0.039c-0.662,0-1.263-0.451-1.426-1.121
		c-0.655-2.695,0.183-4.467,1-5.505c1.117-1.419,2.854-2.155,3.923-2.155c0.002,0,0.003,0,0.003,0c0.811,0,1.469,0.63,1.467,1.441
		c-0.002,0.803-0.648,1.439-1.447,1.453C14.774,12.706,13.884,13.037,13.311,13.846z M18.821,20.785
		c-1.019,0-1.844-0.824-1.844-1.843c0-1.02,0.825-1.846,1.844-1.846s1.845,0.826,1.845,1.846
		C20.665,19.96,19.839,20.785,18.821,20.785z M3.348,15.766c1.312-1.559,4.371-4.822,8.157-6.428
		c-2.19,1.369-3.647,3.801-3.647,6.575c0,2.3,1.003,4.366,2.596,5.784C7.157,19.99,4.536,17.177,3.348,15.766z M20.298,22.08
		c1.858-1.416,3.061-3.65,3.061-6.167c0-3.046-1.757-5.68-4.312-6.946c4.233,1.409,7.719,5.111,9.142,6.801
		C26.908,17.291,23.965,20.44,20.298,22.08z"/>
</g>
</svg>