<?xml version="1.0" encoding="utf-8"?><!-- Uploaded to: SVG Repo, www.svgrepo.com, Generator: SVG Repo Mixer Tools -->
<svg width="800px" height="800px" viewBox="0 0 100 100" xmlns="http://www.w3.org/2000/svg" xmlns:xlink="http://www.w3.org/1999/xlink" aria-hidden="true" role="img" class="iconify iconify--gis" preserveAspectRatio="xMidYMid meet"><path d="M50.1 11.502a3.5 3.5 0 0 0-2.157.666L11.141 38.906a3.5 3.5 0 0 0-1.27 3.912l14.057 43.264a3.5 3.5 0 0 0 3.328 2.418h45.488a3.5 3.5 0 0 0 3.328-2.418L90.13 42.818a3.5 3.5 0 0 0-1.27-3.912L52.057 12.168a3.5 3.5 0 0 0-1.957-.666zm-.1 7.824l32.688 23.748L70.2 81.5H29.8L17.313 43.074z" fill="#000000"></path></svg>