<?xml version="1.0" encoding="iso-8859-1"?>
<!-- Uploaded to: SVG Repo, www.svgrepo.com, Generator: SVG Repo Mixer Tools -->
<!DOCTYPE svg PUBLIC "-//W3C//DTD SVG 1.1//EN" "http://www.w3.org/Graphics/SVG/1.1/DTD/svg11.dtd">
<svg fill="#000000" version="1.1" id="Capa_1" xmlns="http://www.w3.org/2000/svg" xmlns:xlink="http://www.w3.org/1999/xlink" 
	 width="800px" height="800px" viewBox="0 0 298.655 298.655"
	 xml:space="preserve">
<g>
	<path d="M241.699,108.032c0.066-1.336,0.205-2.651,0.205-4.005c0-52.02-42.322-94.347-94.363-94.347
		c-52.02,0-94.341,42.328-94.341,94.347c0,1.928,0.183,3.795,0.288,5.69C21.894,124.984,0,157.242,0,194.622
		c0,52.02,42.328,94.354,94.354,94.354c20.524,0,39.476-6.659,54.983-17.835c15.501,11.176,34.458,17.835,54.971,17.835
		c52.025,0,94.348-42.334,94.348-94.354C298.667,155.861,275.176,122.537,241.699,108.032z"/>
</g>
</svg>