<?xml version="1.0" encoding="iso-8859-1"?>
<!-- Uploaded to: SVG Repo, www.svgrepo.com, Generator: SVG Repo Mixer Tools -->
<!DOCTYPE svg PUBLIC "-//W3C//DTD SVG 1.1//EN" "http://www.w3.org/Graphics/SVG/1.1/DTD/svg11.dtd">
<svg fill="#000000" version="1.1" id="Capa_1" xmlns="http://www.w3.org/2000/svg" xmlns:xlink="http://www.w3.org/1999/xlink" 
	 width="800px" height="800px" viewBox="0 0 36.045 36.045"
	 xml:space="preserve">
<g>
	<path d="M32.692,25.839c-1.231,5.627-6.035,5.772-9.52,6.613c-2.953,0.712-5.15,3.593-5.15,3.593s-2.198-2.882-5.148-3.593
		c-3.484-0.841-8.291-0.986-9.523-6.613C1.598,17.83,8.624,15.646,6.362,7.454C5.874,5.685,5.396,5.04,4.392,4.307
		C5.205,4.036,5.858,3.032,5.897,1.99c0.967,0.501,2.062,1.008,3.271,1.008c2.998,0,6.23-1.027,8.541-2.766L18.02,0l0.318,0.232
		c2.31,1.738,5.548,2.766,8.543,2.766c1.21,0,1.98-0.544,3.104-0.855c0.081,0.571,0.812,1.853,1.465,2.085
		c-0.652,0.851-1.273,1.458-1.764,3.226C27.423,15.646,34.449,17.83,32.692,25.839z"/>
</g>
</svg>