<?xml version="1.0" encoding="iso-8859-1"?>
<!-- Uploaded to: SVG Repo, www.svgrepo.com, Generator: SVG Repo Mixer Tools -->
<!DOCTYPE svg PUBLIC "-//W3C//DTD SVG 1.1//EN" "http://www.w3.org/Graphics/SVG/1.1/DTD/svg11.dtd">
<svg fill="#000000" version="1.1" id="Capa_1" xmlns="http://www.w3.org/2000/svg" xmlns:xlink="http://www.w3.org/1999/xlink" 
	 width="800px" height="800px" viewBox="0 0 360.407 360.407"
	 xml:space="preserve">
<g>
	<g>
		<path d="M344.747,87.187c-1.524-2.682-4.083-4.155-7.193-4.155c-13.493,0-44.628-20.329-74.748-39.977
			C228.879,20.92,196.837,0,179.444,0c-18.359,0-55.869,23.89-92.222,47.026C59.447,64.731,30.721,83.022,21.326,83.022
			c-2.627,0-4.846,1.348-6.095,3.702c-0.811,1.537-1.216,3.483-1.216,5.92c0,34.75,109.942,267.763,165.423,267.763
			c52.377,0,166.954-222.931,166.954-265.559C346.393,91.624,345.858,89.117,344.747,87.187z"/>
	</g>
</g>
</svg>