<?xml version="1.0" ?><!-- Uploaded to: SVG Repo, www.svgrepo.com, Generator: SVG Repo Mixer Tools -->
<svg fill="#000000" width="800px" height="800px" viewBox="0 0 35 35" data-name="Layer 2" id="aced7aec-53ff-4ca1-8b23-19688fde681b" xmlns="http://www.w3.org/2000/svg"><path d="M27,34.078a2.976,2.976,0,0,1-1.3-.3l-8.074-3.931a.456.456,0,0,0-.4,0L9.114,33.7a2.958,2.958,0,0,1-4.133-3.415l2.056-7.916a.455.455,0,0,0-.1-.422l-5.91-6.5A2.957,2.957,0,0,1,3.04,10.507l7.864-.453a.464.464,0,0,0,.383-.252l3.619-7.244A2.94,2.94,0,0,1,17.551.922h.014A2.937,2.937,0,0,1,20.21,2.584l3.547,7.279a.46.46,0,0,0,.381.256h0l7.852.53a2.958,2.958,0,0,1,1.969,4.961l-5.968,6.44a.453.453,0,0,0-.108.421L29.86,30.4A2.964,2.964,0,0,1,27,34.078ZM17.423,27.3a2.948,2.948,0,0,1,1.294.3l8.074,3.931a.457.457,0,0,0,.644-.521l-1.978-7.93a2.948,2.948,0,0,1,.7-2.726l5.968-6.439a.458.458,0,0,0-.3-.768l-7.85-.53a2.964,2.964,0,0,1-2.46-1.654L17.962,3.68a.439.439,0,0,0-.408-.258h0a.44.44,0,0,0-.409.254l-3.619,7.243a2.967,2.967,0,0,1-2.476,1.631L3.184,13a.457.457,0,0,0-.312.764l5.91,6.5A2.946,2.946,0,0,1,9.457,23L7.4,30.914a.457.457,0,0,0,.64.528l8.11-3.858A2.956,2.956,0,0,1,17.423,27.3Z"/></svg>