<?xml version="1.0" ?><!-- Uploaded to: SVG Repo, www.svgrepo.com, Generator: SVG Repo Mixer Tools -->
<svg fill="#000000" width="800px" height="800px" viewBox="0 0 35 35" data-name="Layer 2" id="ab59c5de-f7d7-4d29-9039-d51e86b76f0e" xmlns="http://www.w3.org/2000/svg"><path d="M30.586,33.75H4.414A3.168,3.168,0,0,1,1.25,30.585V4.414A3.167,3.167,0,0,1,4.414,1.25H30.586A3.168,3.168,0,0,1,33.75,4.414V30.585A3.169,3.169,0,0,1,30.586,33.75ZM4.414,3.75a.665.665,0,0,0-.664.664V30.585a.666.666,0,0,0,.664.665H30.586a.666.666,0,0,0,.664-.665V4.414a.665.665,0,0,0-.664-.664Z"/></svg>