<?xml version="1.0" encoding="iso-8859-1"?>
<!-- Uploaded to: SVG Repo, www.svgrepo.com, Generator: SVG Repo Mixer Tools -->
<!DOCTYPE svg PUBLIC "-//W3C//DTD SVG 1.1//EN" "http://www.w3.org/Graphics/SVG/1.1/DTD/svg11.dtd">
<svg fill="#000000" version="1.1" id="Capa_1" xmlns="http://www.w3.org/2000/svg" xmlns:xlink="http://www.w3.org/1999/xlink" 
	 width="800px" height="800px" viewBox="0 0 277.343 277.343"
	 xml:space="preserve">
<g>
	<path d="M137.573,59.363c-1.017-1.114-2.499-1.783-3.977-1.709c-1.515,0.027-2.937,0.703-3.915,1.856L1.246,211.041
		c-1.324,1.563-1.619,3.751-0.76,5.605c0.861,1.858,2.723,3.049,4.769,3.049h266.759c0.021,0,0.051,0,0.071,0
		c2.905,0,5.257-2.351,5.257-5.257c0-1.629-0.743-3.086-1.906-4.051L137.573,59.363z M16.602,209.178L133.841,70.86l126.26,138.318
		H16.602z"/>
	<path d="M62.455,181.456c-1.325,1.561-1.619,3.751-0.76,5.609c0.862,1.857,2.722,3.049,4.769,3.049h141.854
		c0.024,0,0.052,0,0.072,0c2.902,0,5.256-2.351,5.256-5.256c0-1.63-0.746-3.087-1.909-4.056l-73.09-80.066
		c-1.017-1.116-2.565-1.83-3.977-1.711c-1.514,0.029-2.938,0.705-3.915,1.858L62.455,181.456z M134.914,112.232l61.491,67.369
		H77.812L134.914,112.232z"/>
</g>
</svg>