<!DOCTYPE svg PUBLIC "-//W3C//DTD SVG 1.1//EN" "http://www.w3.org/Graphics/SVG/1.1/DTD/svg11.dtd">
<!-- Uploaded to: SVG Repo, www.svgrepo.com, Transformed by: SVG Repo Mixer Tools -->
<svg width="800px" height="800px" viewBox="0 0 20 20" version="1.1" xmlns="http://www.w3.org/2000/svg" fill="#000000">
<g id="SVGRepo_bgCarrier" stroke-width="0"/>
<g id="SVGRepo_tracerCarrier" stroke-linecap="round" stroke-linejoin="round"/>
<g id="SVGRepo_iconCarrier"> <g id="layer1"> <path d="M 10 2 A 8 8 0 0 0 2 10 A 8 8 0 0 0 10 18 A 8 8 0 0 0 18 10 A 8 8 0 0 0 10 2 z M 10 3 A 7 7 0 0 1 17 10 A 7 7 0 0 1 10 17 A 7 7 0 0 1 3 10 A 7 7 0 0 1 10 3 z " style="fill:#ffffff; fill-opacity:1; stroke:none; stroke-width:0px;"/> </g> </g>
</svg>