<!DOCTYPE svg PUBLIC "-//W3C//DTD SVG 1.1//EN" "http://www.w3.org/Graphics/SVG/1.1/DTD/svg11.dtd">
<!-- Uploaded to: SVG Repo, www.svgrepo.com, Transformed by: SVG Repo Mixer Tools -->
<svg width="800px" height="800px" viewBox="0 0 20 20" version="1.1" xmlns="http://www.w3.org/2000/svg" fill="#000000">
<g id="SVGRepo_bgCarrier" stroke-width="0"/>
<g id="SVGRepo_tracerCarrier" stroke-linecap="round" stroke-linejoin="round"/>
<g id="SVGRepo_iconCarrier"> <g id="layer1"> <path d="M 10 1 L 8.2773438 5.8417969 L 3.6347656 3.6367188 L 5.8417969 8.2773438 L 1 10 L 5.84375 11.720703 L 3.6347656 16.363281 L 8.2792969 14.158203 L 10 19 L 11.722656 14.15625 L 16.363281 16.363281 L 14.158203 11.722656 L 19 10 L 14.15625 8.2773438 L 16.365234 3.6347656 L 11.720703 5.8417969 L 10 1 z M 10 3.984375 L 11.150391 7.2207031 L 14.251953 5.7460938 L 12.779297 8.8476562 L 16.015625 10 L 12.777344 11.150391 L 14.251953 14.251953 L 11.150391 12.777344 L 10 16.017578 L 8.8476562 12.779297 L 5.7441406 14.255859 L 7.2207031 11.150391 L 3.984375 9.9980469 L 7.2207031 8.8496094 L 5.7441406 5.7460938 L 8.8496094 7.2207031 L 10 3.984375 z " style="fill:#ffffff; fill-opacity:1; stroke:none; stroke-width:0px;"/> </g> </g>
</svg>