<?xml version="1.0" encoding="iso-8859-1"?>
<!-- Uploaded to: SVG Repo, www.svgrepo.com, Generator: SVG Repo Mixer Tools -->
<!DOCTYPE svg PUBLIC "-//W3C//DTD SVG 1.1//EN" "http://www.w3.org/Graphics/SVG/1.1/DTD/svg11.dtd">
<svg fill="#000000" version="1.1" id="Capa_1" xmlns="http://www.w3.org/2000/svg" xmlns:xlink="http://www.w3.org/1999/xlink" 
	 width="800px" height="800px" viewBox="0 0 174.825 174.825"
	 xml:space="preserve">
<g>
	<g>
		<path d="M89.383,68.914c-0.685,1.756-3.623,1.863-4.122,0c-0.49-1.867-6.254-20.734-6.254-20.734l-3.602,23.401
			c0,0-0.07,10.376-5.824,10.412c-4.984,1.297-19.205,2.214-23.407,0c-3.051-1.607-19.263-7.885-19.229-20.052
			C26.97,49.252,29.29,24.192,75.019,0C-19.777,18.2-26.56,150.305,70.903,173.432c-30.229-19.103-39.053-40.658-41.196-49.542
			c-2.825-11.618,1.833-26.927,15.095-26.927c12.666,0,42.475,5.262,42.475,61.343c0-56.105,30.573-61.343,41.303-61.343
			c12.477,0,19.388,15.418,15.119,29.68c-4.274,14.26-19.918,37.983-41.211,48.183c100.021-22.365,90.612-158.534,0-174.819
			c2.046,1.379,51.977,24.88,46.703,61.942c-1.777,10.912-7.702,18.237-13.73,20.051c-6.028,1.815-27.779,1.678-30.416,0
			c-2.624-1.674-5.163-6.752-5.492-10.412c-0.329-3.653-3.593-23.4-3.593-23.4S90.063,67.148,89.383,68.914z"/>
	</g>
</g>
</svg>