<?xml version="1.0" encoding="iso-8859-1"?>
<!-- Uploaded to: SVG Repo, www.svgrepo.com, Generator: SVG Repo Mixer Tools -->
<!DOCTYPE svg PUBLIC "-//W3C//DTD SVG 1.1//EN" "http://www.w3.org/Graphics/SVG/1.1/DTD/svg11.dtd">
<svg fill="#000000" version="1.1" id="Capa_1" xmlns="http://www.w3.org/2000/svg" xmlns:xlink="http://www.w3.org/1999/xlink" 
	 width="800px" height="800px" viewBox="0 0 29.031 29.031"
	 xml:space="preserve">
<g>
	<path d="M28.411,6.168c0.274,0,0.5-0.225,0.5-0.5V0.5c0-0.275-0.226-0.5-0.5-0.5H7.11c-0.276,0-0.5,0.225-0.5,0.5v5.168
		c0,0.009,0.004,0.017,0.005,0.022H1.619c-0.828,0-1.5,0.673-1.5,1.5v8.153c0,0.533,0.285,1.029,0.75,1.299l6.84,3.949v2.271H7.11
		c-0.276,0-0.5,0.223-0.5,0.5v5.168c0,0.275,0.224,0.5,0.5,0.5h21.302c0.275,0,0.5-0.225,0.5-0.5v-5.168c0-0.277-0.225-0.5-0.5-0.5
		h-0.6V6.168H28.411L28.411,6.168z M3.119,14.479V8.692h4.59v8.438L3.119,14.479z"/>
</g>
</svg>