<?xml version="1.0" encoding="utf-8"?><!-- Uploaded to: SVG Repo, www.svgrepo.com, Generator: SVG Repo Mixer Tools -->
<svg width="800px" height="800px" viewBox="0 0 24 24" fill="none" xmlns="http://www.w3.org/2000/svg">
<path d="M12 22.72C9.87979 22.72 7.80719 22.0913 6.04429 20.9134C4.2814 19.7354 2.90739 18.0612 2.09601 16.1024C1.28464 14.1435 1.07235 11.9881 1.48599 9.90863C1.89962 7.82915 2.9206 5.91903 4.41982 4.41982C5.91904 2.9206 7.82916 1.89962 9.90864 1.48598C11.9881 1.07235 14.1435 1.28464 16.1024 2.09601C18.0612 2.90738 19.7354 4.28139 20.9134 6.04429C22.0913 7.80718 22.72 9.87978 22.72 12C22.7174 14.8423 21.5871 17.5674 19.5773 19.5773C17.5674 21.5871 14.8423 22.7174 12 22.72ZM12 2.78C10.1765 2.78 8.39387 3.32074 6.87765 4.33385C5.36143 5.34696 4.17967 6.78692 3.48183 8.47166C2.78399 10.1564 2.60141 12.0102 2.95716 13.7987C3.31292 15.5872 4.19104 17.2301 5.48048 18.5195C6.76992 19.809 8.41277 20.6871 10.2013 21.0428C11.9898 21.3986 13.8436 21.216 15.5283 20.5182C17.2131 19.8203 18.653 18.6386 19.6662 17.1224C20.6793 15.6061 21.22 13.8235 21.22 12C21.2147 9.55633 20.2416 7.21425 18.5137 5.48631C16.7858 3.75837 14.4437 2.78528 12 2.78Z" fill="#000000"/>
<path d="M13.92 16.07H10.08C9.94914 16.0686 9.82079 16.034 9.70706 15.9692C9.59333 15.9045 9.49798 15.8118 9.43 15.7L7.52 12.38C7.45109 12.2671 7.41463 12.1373 7.41463 12.005C7.41463 11.8727 7.45109 11.7429 7.52 11.63L9.43 8.3C9.49798 8.18817 9.59333 8.09552 9.70706 8.03078C9.82079 7.96604 9.94914 7.93136 10.08 7.93H13.92C14.0511 7.9304 14.1798 7.96468 14.2937 8.02951C14.4076 8.09434 14.5028 8.18752 14.57 8.3L16.49 11.63C16.5539 11.7446 16.5875 11.8737 16.5875 12.005C16.5875 12.1363 16.5539 12.2654 16.49 12.38L14.57 15.7C14.5028 15.8125 14.4076 15.9057 14.2937 15.9705C14.1798 16.0353 14.0511 16.0696 13.92 16.07ZM10.52 14.57H13.52L15 12L13.49 9.43H10.49L9 12L10.52 14.57Z" fill="#000000"/>
<path d="M8.16 12.75H2C1.80109 12.75 1.61032 12.671 1.46967 12.5303C1.32902 12.3897 1.25 12.1989 1.25 12C1.25 11.8011 1.32902 11.6103 1.46967 11.4697C1.61032 11.329 1.80109 11.25 2 11.25H8.16C8.35891 11.25 8.54968 11.329 8.69033 11.4697C8.83098 11.6103 8.91 11.8011 8.91 12C8.91 12.1989 8.83098 12.3897 8.69033 12.5303C8.54968 12.671 8.35891 12.75 8.16 12.75Z" fill="#000000"/>
<path d="M22 12.75H15.84C15.6411 12.75 15.4503 12.671 15.3097 12.5303C15.169 12.3897 15.09 12.1989 15.09 12C15.09 11.8011 15.169 11.6103 15.3097 11.4697C15.4503 11.329 15.6411 11.25 15.84 11.25H22C22.1989 11.25 22.3897 11.329 22.5303 11.4697C22.671 11.6103 22.75 11.8011 22.75 12C22.75 12.1989 22.671 12.3897 22.5303 12.5303C22.3897 12.671 22.1989 12.75 22 12.75Z" fill="#000000"/>
</svg>