<?xml version="1.0" encoding="iso-8859-1"?>
<!-- Uploaded to: SVG Repo, www.svgrepo.com, Generator: SVG Repo Mixer Tools -->
<!DOCTYPE svg PUBLIC "-//W3C//DTD SVG 1.1//EN" "http://www.w3.org/Graphics/SVG/1.1/DTD/svg11.dtd">
<svg fill="#000000" version="1.1" id="Capa_1" xmlns="http://www.w3.org/2000/svg" xmlns:xlink="http://www.w3.org/1999/xlink" 
	 width="800px" height="800px" viewBox="0 0 554.883 554.883"
	 xml:space="preserve">
<g>
	<g>
		<path d="M277.441,0C124.214,0,0,124.214,0,277.441c0,153.227,124.214,277.442,277.441,277.442
			c153.227,0,277.442-124.215,277.442-277.442C554.883,124.214,430.668,0,277.441,0z M277.441,506.941
			c-126.546,0-229.5-102.955-229.5-229.5c0-126.546,102.954-229.5,229.5-229.5c126.545,0,229.5,102.954,229.5,229.5
			C506.941,403.986,403.986,506.941,277.441,506.941z"/>
		<path d="M277.441,63.241c-118.3,0-214.2,95.9-214.2,214.2c0,118.299,95.9,214.2,214.2,214.2c118.299,0,214.2-95.9,214.2-214.2
			C491.641,159.141,395.74,63.241,277.441,63.241z M262.141,94.86h30.599v53.042h-30.599V94.86z M147.902,292.74H94.86v-30.599
			h53.039v30.599H147.902z M292.74,460.021h-30.599V406.98h30.599V460.021z M296.098,274.127l-12.873,101.008l-27.357-122.002
			l-0.04-0.021l0.031-0.021l-0.031-0.138l0.245-0.012l108.07-75.809L296.098,274.127z M406.98,292.74v-30.599h53.039v30.599H406.98z
			"/>
	</g>
</g>
</svg>