<?xml version="1.0" encoding="iso-8859-1"?>
<!-- Uploaded to: SVG Repo, www.svgrepo.com, Generator: SVG Repo Mixer Tools -->
<!DOCTYPE svg PUBLIC "-//W3C//DTD SVG 1.1//EN" "http://www.w3.org/Graphics/SVG/1.1/DTD/svg11.dtd">
<svg fill="#000000" version="1.1" id="Capa_1" xmlns="http://www.w3.org/2000/svg" xmlns:xlink="http://www.w3.org/1999/xlink" 
	 width="800px" height="800px" viewBox="0 0 547.674 547.674"
	 xml:space="preserve">
<g>
	<g>
		<path d="M408.737,167.651c-13.348,0.019-26.206,2.032-38.415,5.569c-25.515-42.613-72.026-71.194-125.295-71.114
			c-80.54,0.128-145.724,65.521-145.595,146.06c0,1.866,0.214,3.678,0.288,5.526c-1.285-0.049-2.54-0.19-3.837-0.19
			C42.846,253.589-0.08,296.648,0,349.685c0.086,53.036,43.146,95.962,96.182,95.883l312.996-0.496
			c76.61-0.122,138.612-62.326,138.496-138.931C547.551,229.537,485.348,167.529,408.737,167.651z"/>
	</g>
</g>
</svg>