<?xml version="1.0" encoding="iso-8859-1"?>
<!-- Uploaded to: SVG Repo, www.svgrepo.com, Generator: SVG Repo Mixer Tools -->
<!DOCTYPE svg PUBLIC "-//W3C//DTD SVG 1.1//EN" "http://www.w3.org/Graphics/SVG/1.1/DTD/svg11.dtd">
<svg fill="#000000" version="1.1" id="Capa_1" xmlns="http://www.w3.org/2000/svg" xmlns:xlink="http://www.w3.org/1999/xlink" 
	 width="800px" height="800px" viewBox="0 0 569.601 569.601"
	 xml:space="preserve">
<g>
	<path d="M295.296,0c-28.535,0-52.126,20.866-56.534,48.157c-9.228-6.493-20.445-10.337-32.589-10.337
		c-31.336,0-56.744,25.408-56.744,56.744c0,26.89,18.724,49.352,43.825,55.204c-20.292,8.52-34.549,28.583-34.549,51.972
		c0,31.126,25.226,56.352,56.352,56.352c10.366,0,20.034-2.84,28.382-7.727c-0.995,78.546,14.267,225.35,129.151,319.235
		l12.105-14.812c-48.721-39.818-78.459-89.897-96.418-139.804c17.375,14.095,42.83,17.289,65.953-3.911
		c36.309-33.287,0.4-63.61,20.529-92.021c12.031-16.982,44.236-22.3,44.236-22.3c-109.002-38.221-147.578,55.214-147.578,55.214
		c-0.048,0.115-0.086,0.239-0.134,0.354c-7.803-40.688-9.294-78.021-8.721-105.608c10.146,13.368,26.153,22.042,44.227,22.042
		c30.676,0,55.547-24.872,55.547-55.549c0-10.624-3.039-20.511-8.213-28.955c2.324,0.277,4.676,0.459,7.066,0.459
		c32.58,0,58.98-26.412,58.98-58.981c0-32.58-26.41-58.981-58.98-58.981c-3.252,0-6.406,0.334-9.516,0.832
		c0.604-3.337,0.967-6.751,0.967-10.251C352.632,25.666,326.957,0,295.296,0z M278.303,182.089
		c-22.873,0-41.405-18.542-41.405-41.406c0-22.864,18.542-41.405,41.405-41.405c22.865,0,41.406,18.542,41.406,41.405
		C319.708,163.548,301.177,182.089,278.303,182.089z"/>
</g>
</svg>