<?xml version="1.0" encoding="iso-8859-1"?>
<!-- Uploaded to: SVG Repo, www.svgrepo.com, Generator: SVG Repo Mixer Tools -->
<svg fill="#000000" height="800px" width="800px" version="1.1" id="Capa_1" xmlns="http://www.w3.org/2000/svg" xmlns:xlink="http://www.w3.org/1999/xlink" 
	 viewBox="0 0 16 16" xml:space="preserve">
<g>
	<path d="M14,4V2h1V0h-2H3H1v2h1v2c0,0.265,0.105,0.519,0.293,0.707L5.586,8l-3.293,3.293C2.105,11.48,2,11.735,2,12v2H1v2h2h10h2
		v-2h-1v-2c0-0.265-0.106-0.52-0.293-0.707L10.414,8l3.293-3.293C13.894,4.519,14,4.265,14,4z M12,12.414V14h-1.009
		c0-0.26-0.092-0.516-0.284-0.707l-2-2c-0.391-0.391-1.023-0.391-1.414,0l-2,2C5.102,13.484,5.01,13.74,5.009,14H4v-1.586
		l3.707-3.707C7.902,8.512,8,8.256,8,8c0,0.256,0.098,0.512,0.293,0.707L12,12.414z M12,3.586L8.293,7.293C8.098,7.488,8,7.744,8,8
		c0-0.256-0.098-0.512-0.293-0.707L4,3.586V2h8V3.586z"/>
</g>
</svg>