<?xml version="1.0" encoding="iso-8859-1"?>
<!-- Uploaded to: SVG Repo, www.svgrepo.com, Generator: SVG Repo Mixer Tools -->
<!DOCTYPE svg PUBLIC "-//W3C//DTD SVG 1.1//EN" "http://www.w3.org/Graphics/SVG/1.1/DTD/svg11.dtd">
<svg fill="#000000" version="1.1" id="Capa_1" xmlns="http://www.w3.org/2000/svg" xmlns:xlink="http://www.w3.org/1999/xlink" 
	 width="800px" height="800px" viewBox="0 0 531.748 531.748"
	 xml:space="preserve">
<g>
	<g>
		<path d="M516.448,138.884h-97.22c-8.451,0-15.3,6.851-15.3,15.3v78.03h-74.144v-120.87c0-8.449-6.852-15.3-15.3-15.3h-97.223
			c-8.449,0-15.3,6.852-15.3,15.3v120.87h-74.144v-78.03c0-8.449-6.848-15.3-15.3-15.3H15.3c-8.449,0-15.3,6.851-15.3,15.3v93.514
			c0,3.452,1.187,6.604,3.115,9.165l42.274,126.822h-1.365c-8.449,0-15.3,6.852-15.3,15.299v21.42c0,8.449,6.851,15.301,15.3,15.301
			h443.7c8.449,0,15.301-6.852,15.301-15.301v-21.42c0-7.961-6.105-14.424-13.874-15.156l39.795-127.347
			c1.753-2.488,2.803-5.508,2.803-8.782v-93.514C531.748,145.735,524.896,138.884,516.448,138.884z M115.934,343.903
			c-12.675,0-22.95-10.275-22.95-22.949s10.275-22.949,22.95-22.949c12.674,0,22.95,10.275,22.95,22.949
			S128.608,343.903,115.934,343.903z M265.874,359.204c-21.123,0-38.25-17.123-38.25-38.25s17.127-38.25,38.25-38.25
			s38.25,17.123,38.25,38.25S286.997,359.204,265.874,359.204z M432.644,343.903c-12.674,0-22.949-10.275-22.949-22.949
			s10.275-22.949,22.949-22.949c12.675,0,22.95,10.275,22.95,22.949S445.318,343.903,432.644,343.903z"/>
	</g>
</g>
</svg>