<?xml version="1.0" encoding="iso-8859-1"?>
<!-- Uploaded to: SVG Repo, www.svgrepo.com, Generator: SVG Repo Mixer Tools -->
<!DOCTYPE svg PUBLIC "-//W3C//DTD SVG 1.1//EN" "http://www.w3.org/Graphics/SVG/1.1/DTD/svg11.dtd">
<svg fill="#000000" version="1.1" id="Capa_1" xmlns="http://www.w3.org/2000/svg" xmlns:xlink="http://www.w3.org/1999/xlink" 
	 width="800px" height="800px" viewBox="0 0 461.53 461.53"
	 xml:space="preserve">
<g>
	<path d="M400.469,0v70.772H63.978V0H400.469z M400.469,82.369l-47.204,167.68h25.76c7.542,0,14.221,4.847,16.544,12.017
		c2.335,7.182-0.225,15.031-6.312,19.464L306.6,341.583l31.581,97.173c2.317,7.164-0.225,15.014-6.324,19.452
		c-3.05,2.217-6.649,3.322-10.226,3.322c-3.594,0-7.188-1.105-10.231-3.322l-82.645-60.047l-82.653,60.047
		c-6.103,4.428-14.363,4.428-20.466,0c-6.1-4.427-8.653-12.288-6.325-19.452l31.578-97.173l-82.656-60.054
		c-6.1-4.427-8.642-12.282-6.325-19.464c2.329-7.17,9.017-12.017,16.559-12.017h32.71L63.983,82.375h109.074v167.674h7.566
		l31.566-97.167c2.329-7.164,9.017-12.025,16.559-12.025c7.53,0,14.209,4.867,16.532,12.025l31.581,97.167h14.534V82.369H400.469z
		 M325.455,284.852h-61.248c-7.542,0-14.221-4.853-16.544-12.022l-18.914-58.239l-18.927,58.239
		c-2.343,7.176-9.02,12.022-16.547,12.022h-61.259l49.559,35.996c6.1,4.434,8.642,12.283,6.324,19.471l-18.938,58.244l49.559-35.996
		c3.05-2.211,6.646-3.322,10.234-3.322c3.585,0,7.167,1.111,10.223,3.322l49.547,35.996l-18.933-58.244
		c-2.316-7.188,0.225-15.031,6.325-19.471L325.455,284.852z"/>
</g>
</svg>