<?xml version="1.0" encoding="iso-8859-1"?>
<!-- Uploaded to: SVG Repo, www.svgrepo.com, Generator: SVG Repo Mixer Tools -->
<!DOCTYPE svg PUBLIC "-//W3C//DTD SVG 1.1//EN" "http://www.w3.org/Graphics/SVG/1.1/DTD/svg11.dtd">
<svg fill="#000000" version="1.1" id="Capa_1" xmlns="http://www.w3.org/2000/svg" xmlns:xlink="http://www.w3.org/1999/xlink" 
	 width="800px" height="800px" viewBox="0 0 28.427 28.428"
	 xml:space="preserve">
<g>
	<g>
		<path d="M9.838,6.951c0-2.414,1.965-4.374,4.374-4.374c2.411,0,4.374,1.96,4.374,4.374v4.56h2.573v-4.56
			C21.16,3.116,18.044,0,14.212,0c-3.829,0-6.948,3.116-6.948,6.951v1.56h2.574V6.951z"/>
		<path d="M22.586,12.97H5.843c-0.705,0-1.287,0.582-1.287,1.293v12.875c0,0.708,0.582,1.29,1.287,1.29h16.743
			c0.705,0,1.285-0.582,1.285-1.29V14.263C23.872,13.552,23.292,12.97,22.586,12.97z"/>
	</g>
</g>
</svg>