<?xml version="1.0" encoding="iso-8859-1"?>
<!-- Uploaded to: SVG Repo, www.svgrepo.com, Generator: SVG Repo Mixer Tools -->
<svg height="800px" width="800px" version="1.1" id="Capa_1" xmlns="http://www.w3.org/2000/svg" xmlns:xlink="http://www.w3.org/1999/xlink" 
	 viewBox="0 0 287.351 287.351" xml:space="preserve">
<g>
	<path style="fill:#010002;" d="M188.703,238.09c40.157,0,72.824-32.672,72.824-72.829c0-32.101-21.066-59.726-50.409-69.234
		c2.507-7.435,3.802-15.262,3.802-23.198C214.919,32.672,182.252,0,142.085,0c-40.157,0-72.824,32.672-72.824,72.829
		c0,8.273,1.403,16.421,4.123,24.128c-28.022,10.323-47.559,37.236-47.559,68.304c0,40.157,32.678,72.829,72.835,72.829
		c11.324,0,22.349-2.714,32.303-7.675v31.508H62.12c-7.022,0-12.717,5.695-12.717,12.711c0,7.022,5.695,12.717,12.717,12.717
		h163.128c7.022,0,12.717-5.695,12.717-12.717c0-7.016-5.695-12.711-12.717-12.711h-68.859v-31.508
		C166.354,235.375,177.368,238.09,188.703,238.09z M98.665,212.662c-26.146,0-47.412-21.267-47.412-47.401
		c0-24.079,18.025-44.307,41.919-47.059c4.378-0.506,8.18-3.236,10.051-7.223c1.871-3.976,1.55-8.659-0.859-12.347
		c-5.015-7.707-7.669-16.633-7.669-25.797c0-26.14,21.267-47.407,47.401-47.407c26.146,0,47.412,21.267,47.412,47.407
		c0,9.078-2.622,17.943-7.577,25.623c-2.442,3.78-2.687,8.577-0.669,12.602c2.029,4.025,6.043,6.679,10.541,6.967
		c24.846,1.594,44.307,22.338,44.307,47.233c0,26.135-21.267,47.401-47.401,47.401c-13.532,0-26.472-5.858-35.49-16.078
		c-0.087-0.103-0.19-0.163-0.288-0.256c-0.348-0.381-0.734-0.713-1.137-1.044c-0.256-0.212-0.511-0.446-0.789-0.642
		c-0.457-0.337-0.957-0.593-1.469-0.859c-0.256-0.131-0.49-0.294-0.756-0.408c-0.604-0.261-1.246-0.451-1.893-0.626
		c-0.201-0.049-0.37-0.131-0.571-0.174c-0.848-0.179-1.73-0.283-2.633-0.283s-1.784,0.103-2.643,0.283
		c-0.19,0.044-0.37,0.125-0.566,0.174c-0.647,0.174-1.294,0.364-1.893,0.626c-0.267,0.114-0.511,0.277-0.767,0.408
		c-0.5,0.267-1.001,0.528-1.469,0.859c-0.277,0.196-0.522,0.43-0.789,0.642c-0.392,0.337-0.789,0.664-1.137,1.044
		c-0.087,0.092-0.19,0.152-0.277,0.256C125.137,206.804,112.197,212.662,98.665,212.662z"/>
</g>
</svg>