<?xml version="1.0" encoding="iso-8859-1"?>
<!-- Uploaded to: SVG Repo, www.svgrepo.com, Generator: SVG Repo Mixer Tools -->
<!DOCTYPE svg PUBLIC "-//W3C//DTD SVG 1.1//EN" "http://www.w3.org/Graphics/SVG/1.1/DTD/svg11.dtd">
<svg fill="#000000" version="1.1" id="Capa_1" xmlns="http://www.w3.org/2000/svg" xmlns:xlink="http://www.w3.org/1999/xlink" 
	 width="800px" height="800px" viewBox="0 0 561.51 561.51"
	 xml:space="preserve">
<g>
	<g>
		<path d="M280.683,29.064h0.07h0.07c11.172,0.052,22.215,0.912,33.079,2.503V0h-45.9v29.483
			C272.213,29.238,276.436,29.083,280.683,29.064z"/>
		<path d="M268.002,459c0,31.215-25.395,56.61-56.61,56.61c-31.215,0-56.61-25.396-56.61-56.61h-45.9
			c0,56.524,45.986,102.51,102.51,102.51s102.51-45.985,102.51-102.51v-74.997h-45.9V459z"/>
		<path d="M468.803,368.702c17.943-31.609,28.191-68.161,28.191-107.106c0-108.36-79.336-198.168-183.088-214.561
			c-10.809-1.707-21.877-2.622-33.15-2.674c-4.284,0.019-8.528,0.199-12.751,0.462C154.44,51.931,64.516,146.237,64.516,261.597
			c0,38.944,10.248,75.496,28.192,107.105h175.298h45.901H468.803L468.803,368.702z"/>
	</g>
</g>
</svg>