<?xml version="1.0" encoding="iso-8859-1"?>
<!-- Uploaded to: SVG Repo, www.svgrepo.com, Generator: SVG Repo Mixer Tools -->
<svg version="1.1" id="Layer_1" xmlns="http://www.w3.org/2000/svg" xmlns:xlink="http://www.w3.org/1999/xlink" 
	 viewBox="0 0 512 512" xml:space="preserve">
<path style="fill:#999999;" d="M256,32h-9.6h-0.288h-0.336H245.4h-0.248h-0.392h-0.168h-0.616l0,0h-0.616h-0.088h-0.544l0,0
	c-8.896,0.52-17.752,1.568-26.52,3.136l2.824,15.752C231.248,48.84,243.616,47.872,256,48V32z M177.68,46.072l-0.584,0.224l0,0
	l-0.144,0.056l0,0h-0.072l0,0h-0.072l0,0l-0.512,0.192l0,0h-0.064l0,0h-0.064l0,0h-0.064l0,0h-0.056l0,0h-0.064l0,0h-0.048l0,0
	h-0.056l0,0l-0.208,0.08l0,0h-0.056l0,0h-0.048l0,0h-0.04h-0.04l0,0l0,0h-0.04l0,0H175.4l0,0l0,0h-0.04l0,0h-0.048l0,0h-0.048l0,0
	l-0.152,0.056l0,0h-0.048l0,0l0,0l0,0h-0.04l0,0h-0.048l0,0h-0.048l0,0h-0.048l0,0h-0.048l0,0h-0.048l0,0h-0.056l0,0h-0.064l0,0
	l-0.16,0.064l0,0h-0.072l0,0h-0.072l0,0h-0.064l0,0h-0.064l0,0h-0.056l0,0h-0.064l0,0h-0.064l0,0l-0.552,0.216l0,0h-0.072l0,0
	h-0.072l0,0l-0.8,0.32l0,0l-0.16,0.064l0,0l-0.16,0.064l0,0c-2.952,1.208-5.864,2.472-8.752,3.792l0,0h-0.072l0,0l-0.536,0.248l0,0
	H162.8l0,0h-0.072l0,0h-0.072l0,0h-0.072l0,0h-0.072l0,0l-0.464,0.216l0,0h-0.072l0,0h-0.064l0,0h-0.064l0,0h-0.064l0,0h-0.056l0,0
	h-0.064l0,0h-0.072l0,0l-0.304,0.144l0,0h-0.064l0,0h-0.048l0,0h-0.048l0,0L160,53.6l0,0h-0.048l0,0h-0.048l0,0h-0.056l0,0h-0.072
	l0,0l-0.152,0.072l0,0h-0.072l0,0h-0.056l0,0h-0.048l0,0H159.4l0,0h-0.04l0,0l0,0l0,0l0,0h-0.04l0,0h-0.048l0,0h-0.048l0,0h-0.04
	h-0.064h-0.072l0,0h-0.056l0,0h-0.056l0,0h-0.048l0,0h-0.048l0,0h-0.056l0,0h-0.048l0,0h-0.048l0,0h-0.056l0,0h-0.064l0,0
	l-0.408,0.2l0,0h-0.064l0,0h-0.064l0,0h-0.064l0,0h-0.064l0,0c-5.336,2.616-10.528,5.44-15.592,8.456l8.176,13.752
	c10.648-6.32,21.84-11.672,33.44-16l-5.6-14.992L177.68,46.072z M109.28,86.736c-4.184,3.632-8.232,7.416-12.136,11.344l0,0
	l-0.112,0.112l0,0l-0.104,0.104l0,0L96.8,98.4l0,0l-0.104,0.112l0,0l-0.288,0.296l0,0l-0.104,0.104l0,0l-0.096,0.096l0,0L96,99.2
	l0,0l-0.088,0.088l0,0l-0.056,0.056l-0.064,0.064l-0.048,0.048l-0.04,0.04l-0.072,0.08l0,0l-0.08,0.08l0,0l-0.08,0.08l0,0
	L95.4,99.808L95.2,100l-0.064,0.072l-0.048,0.048l-0.048,0.048l-0.064,0.064l-0.048,0.048l-0.064,0.064l-0.048,0.048l-0.056,0.056
	l-0.056,0.056l-0.048,0.048l-0.056,0.064l-0.048,0.056l-0.056,0.056l-0.056,0.056l0,0l-0.072,0.072v0.04l-0.072,0.08l0,0
	l-0.072,0.08l0,0l-0.08,0.08l0,0l-0.072,0.072l0,0L94,101.288l0,0l-0.08,0.08l0,0l-0.088,0.088l0,0l-0.08,0.088l0,0l-0.088,0.088
	l0,0l-0.088,0.096l0,0l-0.088,0.096l0,0L93.4,101.92l0,0l-0.088,0.096l0,0l-0.088,0.096l0,0l-0.088,0.096l0,0l-0.088,0.096l0,0
	L92.96,102.4l0,0l-0.104,0.104l0,0l-0.208,0.224l0,0l-0.104,0.112l0,0l-0.096,0.104l0,0l-0.096,0.104l0,0l-0.104,0.112l0,0
	l-0.424,0.456l0,0c-3.392,3.672-6.656,7.464-9.8,11.36l12.456,10.04c7.784-9.648,16.408-18.584,25.768-26.712L109.76,86.216
	L109.28,86.736z M59.328,148.688c-2.728,4.984-5.264,10.072-7.608,15.28l0,0l-0.344,0.8l0,0v0.072l0,0v0.072l0,0v0.072l0,0v0.064
	l0,0l-0.2,0.456l0,0v0.064l0,0v0.056l0,0v0.048l0,0v0.048l0,0v0.048l0,0v0.048l0,0v0.048l0,0v0.056l0,0v0.072l0,0v0.04l0,0v0.04l0,0
	v0.04l0,0v0.04l0,0v0.04l0,0l0,0l0,0l0,0l0,0l0,0v0.048l0,0l-0.112,0.248l0,0v0.064l0,0v0.072l0,0v0.072l0,0v0.064l0,0v0.064l0,0
	v0.064l0,0l-0.304,0.72l0,0c-2.368,5.56-4.504,11.232-6.4,17.016l15.2,5.048c3.912-11.752,8.864-23.128,14.8-33.992L60.32,148
	L59.328,148.688z M34.24,224.2c-0.12,0.808-0.232,1.608-0.336,2.4l0,0v0.24l0,0v0.112l0,0v0.232l0,0v0.232v0.136v0.112V228v0.096
	v0.8v0.112v0.136v0.224v0.12v0.152v0.112V230l0,0c-0.584,5.072-1,10.192-1.24,15.352l0,0v0.264l0,0v0.088l0,0v0.264l0,0v0.256l0,0
	v0.088l0,0v0.528l0,0v2.144l0,0v6.32H32V256l0,0v2.44l0,0v0.528l0,0c0,1.712,0.064,3.416,0.128,5.112l16-0.568
	C48.04,261.024,48,258.52,48,256c0-9.888,0.696-19.76,2.08-29.544L34.24,224.2L34.24,224.2z M52.736,300.344l-15.632,3.392
	c0.944,4.352,2.008,8.656,3.2,12.92l0,0v0.08l0,0v0.08l0,0v0.072l0,0v0.072l0,0v0.072l0,0l0.096,0.328l0,0v0.08l0,0v0.064l0,0v0.056
	l0,0v0.056l0,0v0.064l0,0v0.064l0,0v0.064l0,0l0.072,0.24l0,0v0.064l0,0v0.056l0,0v0.056l0,0v0.048l0,0v0.04l0,0v0.048l0,0v0.048
	l0,0v0.056l0,0v0.08v0.16v0.04l0,0v0.04l0,0v0.048l0,0v0.048l0,0v0.048l0,0v0.048l0,0l0.088,0.288l0,0L41.28,320l0,0v0.064l0,0
	v0.064l0,0v0.064l0,0l0.16,0.528l0,0v0.072l0,0c1.712,5.664,3.64,11.232,5.776,16.696l0,0v0.064l0,0v0.064l0,0v0.064l0,0v0.072l0,0
	l0.136,0.352l0,0v0.056l0,0v0.048l0,0v0.04l0,0v0.04l0,0v0.04l0,0v0.048l0,0v0.04l0,0v0.072v0.048l0,0v0.056l0,0v0.056l0,0v0.056
	l0,0v0.056l0,0L48,339.2l0,0v0.064l0,0v0.064l0,0c0.328,0.824,0.664,1.64,1,2.448l14.776-6.136
	c-4.744-11.44-8.456-23.272-11.088-35.376L52.736,300.344z M81.056,368.56l-13.448,8.672c4.76,7.384,9.944,14.472,15.536,21.248l0,0
	l0.104,0.128l0,0l0.104,0.128l0,0l0.48,0.584l0,0l0.104,0.128l0,0l0.48,0.576l0,0l0.096,0.12l0,0l0.096,0.12l0,0l0.104,0.12l0,0
	l0.376,0.448l0,0l0.104,0.12l0,0l0.104,0.12l0,0l0.376,0.44l0,0l0.096,0.112l0,0l0.096,0.112l0,0l0.088,0.104l0,0l0.088,0.104l0,0
	l0.264,0.304l0,0l0.08,0.096l0,0l0.072,0.088l0,0l0.08,0.088l0,0l0.072,0.088l0,0l0.064,0.072l0.04,0.048l0.048,0.056l0.04,0.048
	l0.064,0.08l0,0L86.936,403l0,0l0.072,0.08l0,0l0.064,0.072l0.04,0.048l0.056,0.064l0.048,0.056l0.04,0.048l0.064,0.072l0.048,0.048
	l0.064,0.072l0.04,0.048l0.056,0.064l0.048,0.056l0.048,0.056l0.056,0.064l0.048,0.056l0.056,0.056l0.056,0.056l0.048,0.048
	l0.064,0.072v0.04l0.072,0.08v0.04l0.072,0.08v0.04l0.072,0.08l0,0l0.056,0.064l0.048,0.048l0.064,0.064v0.04l0.064,0.072l0,0
	l0.08,0.088l0,0l0.08,0.088l0,0l0.08,0.088l0,0l0.08,0.088l0,0l0.08,0.096l0,0l0.08,0.088l0,0l0.08,0.096l0,0l0.088,0.096l0,0
	l0.088,0.096l0,0l0.088,0.096l0,0l0.088,0.104l0,0l0.096,0.104l0,0l0.096,0.104l0,0l0.096,0.104l0,0l0.096,0.104l0,0l0.096,0.104
	l0,0l0.096,0.104l0,0l0.096,0.112l0,0L90.4,407l0,0l0.104,0.112l0,0l0.744,0.8L102.952,397c-8.448-9.064-16.08-18.856-22.8-29.272
	L81.056,368.56z M131.456,422.624l-9.6,12.8l1.648,1.224l0,0l0.064,0.048l0,0l0.064,0.048l0,0l0.064,0.048l0,0l0.064,0.048l0,0
	l0.336,0.248l0,0l0.064,0.048l0,0h0.056l0,0h0.048l0,0h0.048l0,0h0.048l0,0h0.04l0,0l0,0l0,0l0,0l0,0l0,0l0,0l0,0l0,0h0.056l0,0
	h0.048h0.056l0,0h0.04l0,0h0.048l0,0h0.048l0,0h0.048l0,0h0.048l0,0h0.048l0,0h0.048l0,0h0.048l0,0h0.056l0,0
	c9.592,6.88,19.712,12.992,30.272,18.28l7.2-14.304c-11.08-5.552-21.64-12.072-31.56-19.496L131.456,422.624z M197.52,455.68
	l-4.488,15.36c8.192,2.392,16.52,4.312,24.936,5.752l0,0h0.08l0,0h0.08l0,0l0.432,0.072H219h0.08l0,0h0.08h0.616h0.08h0.552
	l0.288,0.048h0.4l0.456,0.072l0,0c3.52,0.536,7.072,0.992,10.648,1.384l1.68-15.912c-12.32-1.312-24.496-3.72-36.384-7.2
	L197.52,455.68z M307.648,457.544c-12.008,3.064-24.256,5.048-36.616,5.928l1.136,15.96c10.568-0.752,21.072-2.256,31.424-4.496l0,0
	l0.592-0.128l0,0h0.072l0,0h0.072l0,0h0.08l0,0h0.08l0,0l0.248-0.056l0,0h0.064h0.112h0.056h0.288h0.064h0.472h0.056l0,0
	l0.216-0.048l0,0h0.056l0,0h0.064l0,0h0.064l0,0h0.064l0,0l0.52-0.12l0,0h0.072l0,0c1.528-0.36,3.056-0.728,4.568-1.12l-4-15.504
	L307.648,457.544z M374.792,426.76c-10.16,7.08-20.936,13.232-32.192,18.4l6.672,14.544c3.344-1.536,6.648-3.152,9.904-4.84l0,0
	l0.896-0.472l0,0l0.744-0.392l0,0h0.064l0,0h0.056l0,0H361l0,0h0.072l0,0l0.44-0.24l0,0h0.064l0,0h0.064l0,0h0.056l0,0h0.056l0,0
	h0.056l0,0h0.056l0,0h0.064l0,0H362l0,0l0.224-0.12l0,0h0.064l0,0h0.056l0,0h0.056l0,0h0.048l0,0h0.048l0,0h0.04l0,0h0.04l0,0h0.048
	l0,0h0.056l0,0h0.064l0,0h0.072l0,0h0.072l0,0h0.064l0,0H363l0,0h0.048l0,0h0.048l0,0h0.048l0,0h0.048l0,0h0.048l0,0h0.048l0,0l0,0
	l0,0h0.04l0,0l0.144-0.08l0,0h0.048l0,0h0.04l0,0h0.048l0,0l0,0l0,0l0,0l0,0l0,0l0,0h0.04l0,0h0.04l0,0h0.04l0,0h0.056l0,0h0.072
	l0,0l0.072-0.04h0.04l0,0h0.04l0,0l0,0l0,0l0,0l0,0l0,0l0,0l0,0l0,0l0,0l0,0l0,0l0,0l0,0l0,0l0,0l0,0l0,0l0,0h0.048h0.056l0,0h0.04
	l0,0l0,0l0,0l0,0l0,0l0,0l0,0l0,0l0,0l0,0l0,0l0,0l0,0l0,0l0,0l0,0l0,0l0,0h0.04l0,0l0.096-0.056l0,0h0.056l0,0h0.048l0,0h0.04l0,0
	l0,0l0,0l0,0l0,0h0.04l0,0h0.04l0,0h0.048l0,0h0.048l0,0h0.056l0,0h0.064l0,0l0.256-0.152l0,0h0.048l0,0h0.048l0,0h0.048l0,0h0.048
	l0,0h0.04l0,0h0.04l0,0h0.048l0,0h0.048l0,0h0.056l0,0l0.248-0.144l0,0h0.056l0,0h0.056l0,0h0.056l0,0h0.048l0,0h0.048l0,0h0.056
	l0,0h0.056l0,0h0.056l0,0l0.392-0.232l0,0h0.064l0,0h0.056l0,0h0.056l0,0h0.056l0,0h0.056l0,0h0.064l0,0l0.464-0.272l0,0h0.064l0,0
	h0.064l0,0h0.064l0,0h0.056l0,0h0.056l0,0h0.056l0,0l0.392-0.24l0,0h0.056l0,0h0.056l0,0h0.056l0,0h0.056l0,0h0.056l0,0h0.056l0,0
	h0.056l0,0l0.52-0.32l0,0h0.064l0,0h0.056l0,0h0.056l0,0h0.056l0,0l0.528-0.328l0,0h0.064l0,0h0.056l0,0h0.056l0,0h0.056l0,0h0.056
	l0,0h0.048l0,0h0.056l0,0h0.064l0,0l0.384-0.24l0,0h0.056l0,0h0.056l0,0h0.064l0,0h0.064l0,0l0.52-0.328l0,0l0.128-0.08l0,0h0.064
	l0,0h0.056l0,0h0.056l0,0h0.056l0,0l0.128-0.08l0,0l0.256-0.16l0,0h0.056l0,0h0.056l0,0h0.056l0,0h0.056l0,0h0.048l0,0h0.056l0,0
	l0.064-0.04l0,0h0.064l0,0l0.512-0.328l0,0h0.064l0,0h0.056l0,0h0.056l0,0h0.056l0,0l0.512-0.328l0,0h0.056l0,0h0.056l0,0h0.056l0,0
	H374l0,0h0.048l0,0h0.056l0,0l0.52-0.336l0,0l0.064-0.04l0,0h0.064l0,0h0.056l0,0h0.056l0,0l0.128-0.088l0,0l0.384-0.256l0,0h0.056
	l0,0h0.056l0,0h0.048l0,0h0.056l0,0h0.056l0,0h0.056l0,0h0.056l0,0l0.384-0.256l0,0h0.056l0,0h0.056l0,0h0.056l0,0h0.056l0,0h0.048
	l0,0h0.048l0,0h0.056l0,0l0.376-0.248l0,0h0.056l0,0h0.056l0,0h0.056l0,0h0.056l0,0l0.064-0.04l0,0l0.064-0.04l0,0l0.064-0.04l0,0
	l0.32-0.216l0,0h0.056l0,0h0.056l0,0h0.048l0,0h0.04l0,0l0,0l0,0h0.04l0,0h0.048l0,0h0.048l0,0h0.04l0,0h0.056l0,0l0.176-0.12l0,0
	h0.04l0,0h0.04l0,0h0.048l0,0l0,0l0,0l0,0l0,0l0,0l0,0l0,0l0,0l0,0l0,0l0,0l0,0l0,0l0,0l0.168-0.12l0,0h0.048l0,0h0.04l0,0h0.048
	l0,0l0,0l0,0l0,0l0,0l0,0l0,0l0,0l0,0l0,0l0,0l0,0h0.048l0,0l0,0l-9.152-13.128L374.792,426.76z M427.024,374.4
	c-7.064,10.176-15.024,19.712-23.776,28.488l11.328,11.304c4.552-4.568,8.912-9.32,13.072-14.272l0,0l0.6-0.72l0,0l0.096-0.12l0,0
	l0.096-0.12l0,0l0.592-0.72l0,0l0.096-0.12l0,0l0.096-0.12l0,0l0.392-0.48l0,0l0.096-0.112l0,0l0.096-0.12l0,0l0.392-0.48l0,0
	l0.096-0.12l0,0l0.088-0.112l0,0l0.096-0.112l0,0l0.096-0.12l0,0l0.288-0.36l0,0l0.088-0.112l0,0l0.088-0.112l0,0l0.088-0.112l0,0
	l0.088-0.112l0,0l0.288-0.36l0,0l0.096-0.12l0,0l0.088-0.112l0,0l0.088-0.112l0,0l0.224-0.224l0,0l0.376-0.48l0,0l0.088-0.112l0,0
	l0.088-0.112l0,0l0.088-0.12l0,0l0.096-0.12l0,0l0.184-0.24l0,0l0.096-0.12l0,0l0.088-0.12l0,0l0.096-0.12l0,0l0.088-0.112l0,0
	l0.376-0.496l0,0l0.096-0.12l0,0l0.096-0.128l0,0l0.136-0.208l0,0l0.376-0.496l0,0l0.088-0.12l0,0l0.088-0.12l0,0l0.096-0.12l0,0
	c1.888-2.488,3.728-5.024,5.512-7.6L427.024,374.4z M457.656,307.2c-3.04,12-7.152,23.712-12.288,34.976l14.56,6.64
	c4.008-8.776,7.432-17.808,10.264-27.032l0,0v-0.08l0,0v-0.08l0,0v-0.08l0,0l0.152-0.488l0,0v-0.064l0,0v-0.064l0,0v-0.064l0,0
	v-0.056l0,0v-0.056l0,0v-0.064l0,0v-0.072l0,0l0.048-0.16l0,0v-0.048l0,0v-0.048v-0.04l0,0v-0.048l0,0v-0.048l0,0v-0.048l0,0v-0.048
	l0,0v-0.056l0,0l0.08-0.272l0,0v-0.064l0,0v-0.064l0,0v-0.064l0,0v-0.064l0,0v-0.064l0,0l0.728-1.08l0,0
	c0.696-2.416,1.36-4.848,1.976-7.296C473.176,311.104,457.656,307.2,457.656,307.2z M478.704,231.728l-15.912,1.712
	C463.6,240.936,464,248.464,464,256c0,4.856-0.168,9.76-0.504,14.584l16,1.104c0.288-4.128,0.464-8.288,0.52-12.48l0,0v-0.248l0,0
	v-0.12l0,0v-0.24l0,0v-0.848l0,0V256l0,0v-2.976l0,0v-0.48l0,0v-0.088l0,0v-0.088l0,0V251.8c-0.104-5.736-0.424-11.416-0.96-17.04
	l0,0v-0.088l0,0v-0.088l0,0v-0.088l0,0v-0.28l0,0v-0.088l0,0v-0.096v-0.184v-0.568l0,0v-0.264l0,0v-0.088l0,0l-0.12-1.176
	L478.704,231.728z M456.208,155.408l-14.288,7.2c5.552,11.064,10.104,22.6,13.6,34.48l15.344-4.52l0,0v-0.064l0,0v-0.072l0,0
	c-1.896-6.4-4.056-12.672-6.496-18.824l0,0L464,172.72l0,0l-0.352-0.864l0,0v-0.072l0,0l-0.264-0.648l0,0v-0.072l0,0v-0.072l0,0
	l-0.296-0.72l0,0V170.2l0,0v-0.064l0,0l-0.36-0.856l0,0l-0.304-0.72l0,0l-0.056-0.144l0,0l-0.24-0.568l0,0v-0.064l0,0v-0.072l0,0
	l-0.28-0.64l0,0v-0.064l0,0v-0.064l0,0v-0.064l0,0v-0.064l0,0v-0.064l0,0l-0.248-0.56l0,0v-0.072l0,0v-0.072l0,0l-0.28-0.64l0,0
	v-0.064l0,0v-0.064l0,0v-0.072l0,0l-0.312-0.704l0,0v-0.064l0,0c-1.352-3-2.76-5.968-4.24-8.904L456.208,155.408z M408.384,91.8
	l-10.888,11.728c9.08,8.432,17.392,17.656,24.848,27.56l12.8-9.6c-5.76-7.664-12.008-14.952-18.704-21.816l0,0l-0.648-0.664l0,0
	l-0.104-0.104l0,0l-0.096-0.104l0,0l-0.096-0.104l0,0l-0.104-0.104l0,0l-0.216-0.216l0,0l-0.096-0.096l0,0l-0.096-0.096l0,0
	l-0.096-0.096l0,0l-0.088-0.096l0,0l-0.096-0.096l0,0l-0.096-0.096l0,0l-0.088-0.088l0,0l-0.088-0.088l0,0l-0.088-0.088l0,0
	l-0.088-0.088l0,0l-0.08-0.08l0,0l-0.08-0.08l0,0l-0.072-0.072l0,0L413.6,96.8l0,0l-0.072-0.072l0,0l-0.08-0.08l0,0l-0.072-0.072
	l-0.04-0.04l-0.072-0.072l-0.04-0.04l-0.064-0.064l-0.056-0.048l-0.048-0.048l-0.064-0.064l-0.048-0.048L412.752,96l-0.048-0.048
	l-0.064-0.064l-0.048-0.048l-0.048-0.048l-0.064-0.064l-0.048-0.048l-0.056-0.048l-0.064-0.064l0,0l-0.088-0.088l0,0l-0.096-0.096
	l0,0l-0.104-0.104l0,0l-0.112-0.112l0,0l-0.424-0.408l0,0l-0.12-0.112l0,0c-0.96-0.92-1.928-1.832-2.896-2.736L408.384,91.8z
	 M341.4,48.84l-6.104,14.792c11.448,4.728,22.456,10.472,32.88,17.16l8.624-13.456l-0.064-0.04l0,0l0,0l0,0l0,0l0,0l0,0l0,0l0,0l0,0
	l0,0l0,0h-0.048l0,0h-0.048l0,0h-0.04l0,0h-0.048l0,0l-0.136-0.088l0,0h-0.056l0,0h-0.056l0,0h-0.048l0,0H376.2l0,0h-0.04l0,0l0,0
	l0,0h-0.04l0,0h-0.04l0,0h-0.04l0,0h-0.064l0,0l-0.144-0.088l0,0h-0.048l0,0h-0.04l0,0h-0.048l0,0h-0.048l0,0H375.6l0,0h-0.048l0,0
	h-0.04l0,0h-0.04l0,0h-0.04l0,0h-0.04l0,0l-0.064-0.04l0,0h-0.056l0,0h-0.056l0,0h-0.048l0,0h-0.048l0,0h-0.048l0,0h-0.048l0,0
	h-0.048l0,0h-0.048l0,0h-0.056l0,0h-0.056l0,0l-0.144-0.088l0,0l-0.064-0.04l0,0h-0.048l0,0h-0.04l0,0h-0.048l0,0h-0.048l0,0h-0.048
	l0,0h-0.048l0,0h-0.056l0,0h-0.048l0,0h-0.056l0,0l-0.216-0.136l0,0h-0.064l0,0h-0.048l0,0h-0.048l0,0h-0.048l0,0h-0.04l0,0h-0.04
	l0,0h-0.048l0,0h-0.048l0,0h-0.056l0,0l-0.144-0.088l0,0h-0.064l0,0h-0.048l0,0h-0.048l0,0L371.44,64l0,0h-0.048l0,0h-0.048l0,0
	h-0.048l0,0h-0.056l0,0h-0.056l0,0h-0.064l0,0l-0.144-0.088l0,0l-0.072-0.04l0,0h-0.056l0,0H370.8l0,0h-0.048l0,0h-0.056l0,0h-0.056
	l0,0h-0.056l0,0h-0.064l0,0l-0.288-0.168l0,0h-0.064l0,0h-0.056l0,0h-0.048l0,0h-0.056l0,0h-0.056l0,0h-0.048l0,0h-0.048l0,0h-0.064
	l0,0l-0.288-0.168l0,0l-0.072-0.04l0,0h-0.064l0,0h-0.064l0,0h-0.064l0,0h-0.064l0,0h-0.056l0,0l-0.072-0.04l0,0l-0.512-0.296l0,0
	h-0.064l0,0h-0.064l0,0h-0.056l0,0h-0.056l0,0h-0.064l0,0h-0.064l0,0l-0.816-1.56l0,0h-0.072l0,0h-0.064l0,0h-0.064l0,0h-0.064l0,0
	h-0.064l0,0h-0.064l0,0l-0.44-0.248l0,0l-0.12-0.304l0,0h-0.064l0,0h-0.064l0,0h-0.064l0,0l-0.144-0.08l0,0l-0.512-0.288l0,0h-0.064
	l0,0h-0.064l0,0h-0.072l0,0h-0.072l0,0h-0.064l0,0L364.552,60l0,0h-0.072l0,0h-0.072l0,0l-0.664-0.368l0,0h-0.072l0,0H363.6l0,0
	h-0.072l0,0l-0.736-0.4l0,0h-0.064l0,0h-0.072l0,0c-6.896-3.736-13.976-7.112-21.224-10.104L341.4,48.84z M263.6,32.128l-0.536,16
	c12.376,0.416,24.688,1.928,36.8,4.52l3.36-15.64c-4.464-0.96-8.976-1.784-13.536-2.472h-0.232l-0.304-0.048H288.8l-0.288-0.04
	h-0.424h-0.184h-0.52h-0.096h-1.168h-0.176h-0.44h-0.256h-0.368l-0.344-0.048h-0.352c-6.768-0.848-13.624-1.384-20.576-1.6
	L263.6,32.128z"/>
<g>
	<rect x="216" y="216" style="fill:#E21B1B;" width="80" height="80"/>
	<rect x="216" style="fill:#E21B1B;" width="80" height="80"/>
	<rect x="216" y="432" style="fill:#E21B1B;" width="80" height="80"/>
	<rect x="432" y="216" style="fill:#E21B1B;" width="80" height="80"/>
	<rect y="216" style="fill:#E21B1B;" width="80" height="80"/>
</g>
</svg>