<?xml version="1.0" encoding="iso-8859-1"?>
<!-- Uploaded to: SVG Repo, www.svgrepo.com, Generator: SVG Repo Mixer Tools -->
<!DOCTYPE svg PUBLIC "-//W3C//DTD SVG 1.1//EN" "http://www.w3.org/Graphics/SVG/1.1/DTD/svg11.dtd">
<svg fill="#000000" version="1.1" id="Capa_1" xmlns="http://www.w3.org/2000/svg" xmlns:xlink="http://www.w3.org/1999/xlink" 
	 width="800px" height="800px" viewBox="0 0 486.949 486.949"
	 xml:space="preserve">
<g>
	<g>
		<path d="M486.949,118.757l-66.217-97.016C307.24,59.008,266.21,32.509,252.398,15.725h-6.449H241h-6.449
			c-13.813,16.784-54.842,43.283-168.334,6.017L0,118.758c0,0,66.965,10.105,46.198,98.557
			c-61.199,260.664,162.435,212.77,190.647,253.91h4.949h3.359h4.948c28.213-41.141,251.846,6.754,190.648-253.911
			C419.984,128.863,486.949,118.757,486.949,118.757z M419.172,124.73c-17.807,26.292-22.008,60.168-12.494,100.689
			c14.557,62.006,12.621,108.295-5.758,137.583c-21.648,34.504-65.627,44.312-104.441,52.969
			c-20.246,4.516-38.412,8.566-53.004,16.343c-14.592-7.774-32.76-11.827-53.016-16.345c-38.801-8.654-82.779-18.463-104.43-52.967
			c-18.377-29.287-20.314-75.576-5.758-137.583c9.514-40.521,5.311-74.398-12.492-100.689c-4.73-6.986-10.305-13.218-16.678-18.653
			l29.564-43.315c31.438,8.622,59.789,12.986,84.439,12.985c37.578-0.002,62.426-10.073,78.371-21.112
			c15.947,11.041,40.795,21.113,78.374,21.112c24.654-0.001,53.002-4.365,84.436-12.985l29.564,43.315
			C429.477,111.513,423.9,117.746,419.172,124.73z"/>
		<path d="M321.848,95.083c-30.385,0.001-56.681-5.941-78.375-17.683c-21.692,11.74-47.985,17.681-78.367,17.683
			c-22.661,0.001-48.118-3.395-75.839-10.108l-12.353,18.096c2.646,3.118,5.123,6.383,7.425,9.782
			c21.063,31.105,26.245,70.292,15.402,116.474c-13.104,55.813-11.987,98.131,3.229,122.381
			c17.212,27.431,55.15,35.892,91.84,44.074c17.346,3.869,33.895,7.561,48.664,13.767c14.768-6.205,31.312-9.896,48.646-13.762
			c36.702-8.187,74.647-16.648,91.858-44.079c15.215-24.248,16.332-66.565,3.229-122.382c-10.844-46.182-5.66-85.37,15.404-116.475
			c2.299-3.397,4.777-6.662,7.422-9.78l-12.352-18.097C369.967,91.686,344.51,95.083,321.848,95.083z"/>
	</g>
</g>
</svg>